<svg width="140" height="140" viewBox="0 0 140 140" fill="none" xmlns="http://www.w3.org/2000/svg">
<path d="M26.9871 82.2812C27.2867 82.1734 27.6437 82.452 27.5898 82.7719C27.5779 83.1541 27.0361 83.3487 26.7883 83.0547C26.5391 82.8258 26.6553 82.3582 26.9871 82.2812ZM60.886 82.5507C61.3228 82.2133 61.915 82.2441 62.4316 82.3225C62.398 82.522 62.3595 82.7201 62.3224 82.9203C61.9948 82.8615 61.6147 82.7873 61.3263 82.9994C61.0267 83.2479 61.0393 83.6728 61.0288 84.0249C61.3802 84.0326 61.7323 84.0284 62.0837 84.0305L62.083 84.6332C61.7344 84.6353 61.3858 84.6346 61.0372 84.6346C61.0358 85.9247 61.0372 87.2134 61.0365 88.5028C60.8202 88.5014 60.606 88.5028 60.3904 88.5028C60.3883 87.2148 60.3862 85.9268 60.3911 84.6388C60.0768 84.6318 59.7625 84.6339 59.4475 84.6332C59.4461 84.4316 59.4461 84.23 59.4475 84.0284C59.7611 84.0284 60.0747 84.0298 60.3897 84.0242C60.3596 83.5006 60.4492 82.8993 60.886 82.5507ZM73.3075 82.2735H73.9571C73.9571 83.0862 73.9529 83.8982 73.9613 84.7102C74.3134 84.2321 74.8825 83.9045 75.4852 83.9213C75.9892 83.9122 76.5443 84.0732 76.8418 84.5065C77.1904 84.9965 77.1519 85.6293 77.1547 86.1991V88.5028C76.9363 88.5056 76.72 88.4993 76.5037 88.4993C76.5044 87.6775 76.5072 86.8543 76.5023 86.0339C76.4862 85.6027 76.4638 85.1148 76.1439 84.7865C75.6924 84.3931 74.9665 84.4407 74.5143 84.8096C74.0985 85.1421 73.9627 85.6979 73.9578 86.2075C73.9522 86.9719 73.9564 87.7363 73.9564 88.4993C73.7387 88.4972 73.5231 88.507 73.3068 88.5014L73.3075 82.2735ZM79.0195 82.3057C79.3268 82.1377 79.744 82.4275 79.6852 82.7761C79.6789 83.1359 79.2001 83.3228 78.9348 83.0988C78.6625 82.9035 78.7143 82.4436 79.0195 82.3057ZM108.451 82.305C108.763 82.1377 109.174 82.4331 109.116 82.7831C109.094 83.1632 108.553 83.348 108.313 83.0512C108.081 82.8405 108.163 82.4184 108.451 82.305ZM105.874 82.3421C106.09 82.3414 106.306 82.3316 106.523 82.3365V88.5035C106.308 88.5021 106.093 88.5035 105.877 88.5049C105.872 86.4504 105.879 84.3945 105.874 82.3421ZM29.3755 84.3385C29.8473 83.9199 30.5284 83.8597 31.1255 83.9668C31.5623 84.0459 31.9305 84.3357 32.144 84.72C31.9529 84.8579 31.7562 84.9888 31.5581 85.1155C31.2711 84.489 30.3877 84.314 29.8683 84.7501C29.5953 84.9853 29.6317 85.4802 29.9572 85.6482C30.5557 85.9758 31.3264 85.8806 31.8647 86.3342C32.4891 86.827 32.3904 87.9281 31.7023 88.3187C31.2543 88.6309 30.6887 88.5756 30.1721 88.5665C29.61 88.5546 29.1137 88.1927 28.8071 87.7405C28.9919 87.6082 29.1816 87.4822 29.3734 87.3583C29.7437 87.9827 30.6054 88.2193 31.2347 87.8504C31.5784 87.6768 31.7114 87.1539 31.4027 86.8851C31.0541 86.596 30.5781 86.5771 30.1602 86.4574C29.7066 86.3552 29.2208 86.1221 29.0437 85.6594C28.9044 85.2086 28.9996 84.6563 29.3755 84.3385ZM33.8884 84.664C34.7501 83.6644 36.5134 83.6616 37.3464 84.7018C37.1707 84.8397 36.988 84.9678 36.8102 85.105C36.3111 84.349 35.1316 84.3308 34.5261 84.9615C33.8226 85.7007 33.866 87.0629 34.6773 87.7076C35.3122 88.2067 36.3482 88.1234 36.8193 87.436C36.9971 87.5704 37.1763 87.7041 37.3506 87.8448C36.995 88.2158 36.5351 88.5483 36.0031 88.5644C35.4697 88.5889 34.8957 88.6141 34.426 88.3145C33.1737 87.6117 32.9861 85.7168 33.8884 84.664ZM55.2111 84.0774C55.5821 83.8877 56.0147 83.9066 56.4165 83.9584C56.3815 84.1747 56.3367 84.3861 56.2961 84.601C56.0133 84.5681 55.7179 84.545 55.4463 84.6486C54.915 84.8404 54.5657 85.3969 54.558 85.952C54.5517 86.8032 54.5657 87.6551 54.5517 88.5049C54.3368 88.5021 54.1226 88.4993 53.9084 88.4993C53.8993 87.009 53.9385 85.5166 53.8629 84.027C54.0799 84.0256 54.2969 84.027 54.5146 84.027C54.5153 84.2811 54.5146 84.5359 54.5104 84.7914C54.6819 84.5023 54.8947 84.2195 55.2111 84.0774ZM69.0536 84.3763C69.5226 83.9255 70.2317 83.8555 70.8456 83.9682C71.0596 84.0115 71.2614 84.1013 71.4368 84.2312C71.6122 84.3611 71.7569 84.528 71.8606 84.72C71.6709 84.8579 71.4735 84.9888 71.2754 85.1155C70.9884 84.4918 70.1134 84.3161 69.5919 84.7431C69.3126 84.9755 69.3455 85.476 69.6738 85.6482C70.3024 85.9926 71.1389 85.8736 71.6695 86.4161C72.0132 86.7458 72.0664 87.2792 71.9208 87.7139C71.7213 88.269 71.1088 88.5749 70.5439 88.5735C70.126 88.5735 69.6815 88.6169 69.2958 88.4209C68.9787 88.2746 68.7225 88.0268 68.523 87.7426C68.7078 87.6089 68.8982 87.4829 69.09 87.359C69.4666 88.0009 70.3724 88.2291 70.9982 87.8217C71.3104 87.6306 71.4112 87.1364 71.1172 86.8844C70.7686 86.596 70.2912 86.5778 69.8726 86.4574C69.4204 86.3552 68.9353 86.1214 68.7603 85.6594C68.6287 85.224 68.7078 84.6969 69.0536 84.3763ZM87.8129 84.7109C88.1328 84.3063 88.5878 83.9906 89.1114 83.936C89.635 83.8863 90.2286 83.9808 90.6017 84.3833C90.9244 84.7403 91.0063 85.2366 91.0133 85.7028C91.0161 86.6352 91.0091 87.569 91.0161 88.5028C90.7977 88.4972 90.58 88.5126 90.3637 88.5056C90.3609 87.653 90.3679 86.8018 90.3609 85.952C90.342 85.5334 90.2965 85.0588 89.9682 84.7578C89.4607 84.3637 88.676 84.4715 88.2455 84.93C87.906 85.2933 87.8227 85.812 87.8136 86.2908C87.8094 87.0293 87.8171 87.7671 87.8108 88.5056L87.1654 88.5042C87.1409 87.0132 87.2172 85.518 87.1199 84.0312C87.3446 84.0312 87.5721 84.0298 87.8003 84.0319C87.8143 84.2559 87.8157 84.4834 87.8129 84.7109ZM100.916 84.7172C101.238 84.2965 101.711 83.9801 102.245 83.9311C102.763 83.8877 103.352 83.9871 103.718 84.3917C104.054 84.769 104.114 85.2954 104.12 85.7798C104.118 86.6884 104.122 87.5956 104.117 88.5028C103.9 88.5028 103.688 88.5014 103.471 88.5028C103.47 87.6782 103.474 86.8543 103.47 86.0311C103.45 85.5908 103.428 85.0861 103.086 84.7627C102.556 84.3357 101.703 84.4778 101.292 85.0014C100.998 85.3584 100.928 85.8358 100.922 86.2852C100.919 87.0237 100.923 87.7615 100.921 88.5028C100.704 88.5014 100.49 88.5028 100.275 88.5028C100.248 87.0118 100.323 85.5173 100.229 84.0284H100.906C100.922 84.258 100.922 84.4876 100.916 84.7172ZM111.354 84.7207C111.71 84.2167 112.314 83.8891 112.937 83.9227C113.414 83.9241 113.932 84.083 114.221 84.4869C114.517 84.8817 114.543 85.3955 114.552 85.8701V88.5021C114.334 88.5021 114.12 88.5035 113.905 88.5049C113.893 87.6572 113.919 86.8074 113.892 85.9597C113.877 85.5313 113.836 85.0364 113.485 84.7396C112.941 84.3378 112.099 84.4918 111.699 85.0273C111.439 85.3619 111.362 85.7952 111.353 86.2089C111.35 86.9733 111.352 87.7384 111.352 88.5021C111.134 88.5063 110.918 88.4993 110.701 88.5021C110.685 87.0104 110.748 85.518 110.658 84.0298C110.882 84.0298 111.11 84.0284 111.335 84.0326C111.35 84.2615 111.354 84.4911 111.354 84.7207ZM26.7967 84.0305C27.0137 84.0249 27.2307 84.0312 27.4484 84.034C27.4386 85.5243 27.4491 87.0146 27.4428 88.5049C27.2272 88.5035 27.0123 88.5035 26.7974 88.5035C26.796 87.0125 26.7967 85.5215 26.7967 84.0305ZM43.2824 84.0298C43.5358 84.0333 43.7892 84.0221 44.0426 84.0347C44.1147 84.1131 44.1343 84.2244 44.1791 84.3203C44.6092 85.474 45.0451 86.6255 45.4867 87.7748C45.9508 86.5253 46.431 85.2807 46.8986 84.0305C47.1464 84.0284 47.3949 84.0298 47.6441 84.0298C47.0365 85.5194 46.4289 87.0097 45.829 88.5035H45.0982C44.4983 87.0097 43.8907 85.5194 43.2824 84.0298ZM78.8893 84.0298C79.1056 84.0298 79.3212 84.0284 79.5396 84.0326C79.5319 85.5236 79.541 87.0132 79.5347 88.5049C79.3184 88.5035 79.1049 88.5021 78.8893 88.5035C78.8879 87.0125 78.8893 85.5208 78.8893 84.0298ZM108.322 84.0298C108.539 84.0298 108.754 84.0284 108.973 84.0326C108.966 85.5236 108.975 87.0132 108.968 88.5049C108.751 88.5035 108.537 88.5021 108.322 88.5035V84.0298ZM24.9774 82.2735C24.7604 82.2721 24.5441 82.2735 24.3278 82.2742C24.3285 83.096 24.3306 83.9178 24.3257 84.7389C23.5179 83.7078 21.8337 83.656 20.9083 84.5506C19.9339 85.4648 19.9766 87.2253 21.014 88.0758C21.4571 88.4692 22.0549 88.6155 22.6373 88.57C23.2925 88.6309 23.9218 88.29 24.325 87.7895C24.3285 88.0268 24.3292 88.2648 24.3292 88.5028C24.5441 88.5014 24.759 88.5028 24.9739 88.5056C24.9816 86.4287 24.9746 84.3511 24.9774 82.2735ZM23.8567 87.5067C23.2757 88.1136 22.2278 88.2095 21.56 87.6929C20.9146 87.2001 20.769 86.2502 21.0546 85.5222C21.1425 85.2947 21.2823 85.0907 21.4629 84.9267C21.6435 84.7626 21.8599 84.643 22.0948 84.5772C22.7717 84.384 23.5606 84.6192 23.9904 85.1834C24.5175 85.8519 24.4629 86.9061 23.8567 87.5067ZM41.993 84.3945C41.3854 83.9297 40.5594 83.824 39.8279 84.0011C39.3275 84.1232 38.8861 84.4176 38.5812 84.8327C38.0653 85.5299 37.9925 86.5085 38.3397 87.2974C38.4807 87.6089 38.6919 87.8834 38.9568 88.0994C39.2217 88.3155 39.533 88.4672 39.8664 88.5427C40.2794 88.5854 40.6994 88.5896 41.1124 88.5483C41.8453 88.3929 42.4823 87.8413 42.7273 87.1336C43.0724 86.1886 42.8162 85.0112 41.993 84.3945ZM41.7319 87.4976C41.1768 88.1297 40.124 88.2004 39.4674 87.6873C38.8465 87.1938 38.689 86.2747 38.962 85.553C39.0461 85.3228 39.1826 85.1153 39.3607 84.9469C39.5388 84.7785 39.7536 84.6539 39.9882 84.5828C40.5839 84.4057 41.286 84.5527 41.7144 85.0175C42.3115 85.6909 42.3234 86.8172 41.7319 87.4976ZM52.4867 86.4546C52.5294 85.7574 52.3691 85.0035 51.8497 84.5023C51.1595 83.817 49.9954 83.7456 49.1764 84.2377C48.209 84.8061 47.866 86.1025 48.2342 87.1294C48.3527 87.4672 48.5512 87.7713 48.8128 88.0156C49.0744 88.2599 49.3913 88.4372 49.7364 88.5322C50.0598 88.5966 50.393 88.5693 50.722 88.5693C51.3751 88.5728 51.9428 88.1535 52.3362 87.6656C52.1717 87.5249 52.0002 87.3919 51.8329 87.2568C51.4353 87.8427 50.6702 88.1752 49.9779 87.9673C49.3038 87.786 48.8446 87.1343 48.7739 86.4567C50.0115 86.4525 51.2491 86.4546 52.4867 86.4546ZM48.7865 85.9086C48.8474 85.1729 49.511 84.5786 50.232 84.5163C50.68 84.4841 51.1693 84.6213 51.4605 84.9818C51.6873 85.2359 51.7573 85.5796 51.7916 85.9086C50.7906 85.9135 49.7882 85.9107 48.7865 85.9086ZM67.27 84.0312C67.0516 84.0298 66.8346 84.0298 66.6176 84.0298L66.6183 84.4624C65.6705 83.6994 64.1403 83.726 63.2842 84.6185C62.3007 85.6321 62.4813 87.541 63.7196 88.2697C64.2467 88.6323 64.9075 88.5868 65.5151 88.5609C65.926 88.5259 66.2921 88.3103 66.619 88.073C66.6176 88.2151 66.6176 88.3586 66.6183 88.5021C66.8325 88.5021 67.0467 88.5049 67.2616 88.5077C67.2756 87.016 67.2595 85.5236 67.27 84.0312ZM66.0772 87.6684C65.4766 88.157 64.5232 88.1465 63.9352 87.6397C63.3647 87.1357 63.2205 86.2621 63.4809 85.5656C63.5635 85.3371 63.6971 85.1304 63.8715 84.9612C64.0459 84.792 64.2566 84.6648 64.4875 84.5891C65.121 84.3903 65.8882 84.5639 66.3075 85.0994C66.8864 85.8421 66.8192 87.0566 66.0772 87.6684ZM84.9331 84.4435C84.3255 83.9444 83.4715 83.8163 82.7204 84.0018C82.243 84.1243 81.7978 84.391 81.4982 84.7851C80.6862 85.8162 80.8983 87.541 82.0379 88.2473C82.5846 88.6316 83.279 88.5889 83.9132 88.5553C84.6587 88.4482 85.3118 87.8987 85.5862 87.2008C85.9453 86.2684 85.736 85.0861 84.9331 84.4435ZM84.4088 87.6887C83.8285 88.1395 82.9402 88.1416 82.3578 87.6929C81.6935 87.1728 81.5493 86.1697 81.8986 85.4284C81.9916 85.2259 82.127 85.0457 82.2956 84.9C82.4641 84.7542 82.662 84.6463 82.8758 84.5835C83.4729 84.4078 84.1792 84.5562 84.6027 85.0287C85.2586 85.7672 85.1991 87.0657 84.4088 87.6887ZM98.1505 84.4379C97.5408 83.936 96.684 83.8177 95.9315 84.0018C95.3953 84.1348 94.9116 84.4708 94.6141 84.9384C93.9106 85.9961 94.1913 87.6362 95.326 88.2809C95.8566 88.6386 96.5209 88.5903 97.1278 88.5567C97.9209 88.4433 98.6139 87.8336 98.8547 87.0713C99.1592 86.1606 98.9184 85.0469 98.1505 84.4379ZM97.8397 87.4955C97.2993 88.1157 96.2815 88.1969 95.6221 87.7237C94.9452 87.233 94.7772 86.246 95.0887 85.4991C95.1762 85.2817 95.3112 85.0867 95.4839 84.9283C95.6567 84.77 95.8627 84.6524 96.0869 84.5842C96.684 84.4036 97.3889 84.5492 97.8201 85.0147C98.4172 85.6902 98.4305 86.8144 97.8397 87.4955ZM120.232 86.4546C120.287 85.8589 120.223 85.2226 119.843 84.7361C119.113 83.7239 117.485 83.6595 116.607 84.5114C115.539 85.4907 115.66 87.4717 116.906 88.255C117.452 88.647 118.153 88.5938 118.788 88.5462C119.333 88.4552 119.771 88.0786 120.125 87.6754C119.961 87.5323 119.794 87.3927 119.624 87.2568C119.232 87.8196 118.511 88.1549 117.831 87.9841C117.128 87.8245 116.635 87.1546 116.563 86.4574C117.786 86.4511 119.008 86.4553 120.232 86.4546ZM116.573 85.91C116.643 85.0497 117.536 84.391 118.379 84.5275C118.748 84.5744 119.113 84.7606 119.325 85.0763C119.505 85.3164 119.545 85.6181 119.582 85.9079C118.579 85.9135 117.577 85.91 116.573 85.91ZM118.062 66.6222C116.764 65.3111 115.067 64.4711 113.336 63.8866C111.002 63.0753 108.503 62.8891 106.187 62.0253C105.428 61.7376 104.673 61.3596 104.122 60.7506C103.388 59.94 103.23 58.6912 103.671 57.7021C103.953 57.07 104.502 56.5877 105.121 56.2951C106.147 55.8149 107.311 55.7435 108.426 55.8296C109.561 55.9136 110.713 56.2853 111.56 57.0679C112.294 57.7315 112.755 58.6562 112.942 59.6201C112.971 59.8707 113.15 60.1381 113.432 60.1136C115.249 60.1318 117.064 60.1598 118.881 60.1563C119.139 60.1899 119.387 59.9694 119.313 59.7006C119.105 58.2523 118.599 56.8334 117.771 55.621C116.771 54.1433 115.273 53.0457 113.623 52.3919C112.098 51.7752 110.456 51.512 108.821 51.4203H106.941C104.931 51.5267 102.892 51.8186 101.044 52.6579C99.6961 53.2627 98.4676 54.2063 97.6962 55.481C96.9374 56.6969 96.642 58.1452 96.6259 59.5641C95.6487 57.5663 94.1823 55.8205 92.4308 54.4555C90.1005 52.6215 87.1899 51.5792 84.2338 51.4203H82.6973C80.6583 51.5397 78.669 52.0972 76.8649 53.0548C74.2137 54.4761 72.0439 56.6524 70.6307 59.3079C70.3997 58.1907 70.0385 57.0889 69.4484 56.1061C68.6686 54.7635 67.494 53.6666 66.1311 52.9288C64.3314 51.9383 62.2713 51.54 60.2385 51.4203H58.2813C56.8064 51.5071 55.3273 51.6786 53.9084 52.1056C52.2627 52.5928 50.6653 53.4349 49.5698 54.7852C48.9433 55.537 48.5345 56.4421 48.2657 57.3766C48.2664 55.838 48.2643 54.2987 48.2678 52.7594C48.265 52.59 48.2643 52.3926 48.1173 52.2778C47.9955 52.1413 47.8016 52.1525 47.635 52.149C45.9921 52.1567 44.3485 52.1448 42.7056 52.1546C42.4592 52.1399 42.2611 52.366 42.2534 52.6012C42.2275 53.0436 42.2625 53.4874 42.2436 53.9305C42.2508 53.982 42.2424 54.0343 42.2194 54.0809C42.1964 54.1275 42.16 54.166 42.1148 54.1916C41.9468 54.1202 41.8005 54.0089 41.6514 53.9053C39.669 52.5123 37.3345 51.5673 34.9027 51.4189H33.6042C32.2847 51.4931 30.9701 51.7192 29.7199 52.1518C27.545 52.9008 25.5864 54.2182 23.9911 55.8667C22.1151 57.7511 20.7823 60.1822 20.265 62.7946C20.1005 63.5744 20.02 64.3668 19.9633 65.1599V66.7769C20.0613 68.5626 20.433 70.3434 21.1701 71.9786C22.337 74.5672 24.3033 76.7694 26.6693 78.3227C28.931 79.8067 31.6512 80.5277 34.3469 80.4969C37.0426 80.5214 39.6837 79.5022 41.7935 77.8516C41.9104 77.7732 42.1239 77.552 42.2289 77.762C42.2814 78.2772 42.2198 78.7973 42.2541 79.3153C42.2618 79.5449 42.4578 79.7703 42.6979 79.7612C44.4045 79.7661 46.1111 79.7668 47.817 79.7612C48.0788 79.7696 48.2867 79.5127 48.265 79.2593C48.2734 77.7445 48.2615 76.2297 48.2699 74.7149C48.7739 75.7852 49.4249 76.7995 50.2971 77.6087C51.758 79.0059 53.6942 79.8039 55.6591 80.1756C57.2971 80.4976 58.9743 80.5284 60.6375 80.4857C62.3959 80.4059 64.1564 80.1406 65.8252 79.5673C67.1517 79.1137 68.425 78.4459 69.4589 77.4904C70.4569 76.567 71.1599 75.3694 71.4798 74.0478C71.9204 74.6899 72.407 75.2991 72.9358 75.8706C74.865 77.9818 77.4424 79.4861 80.2333 80.1091C83.4001 80.8336 86.8238 80.5725 89.7687 79.1613C92.526 77.853 94.8298 75.6417 96.3186 72.9824C96.7274 74.5721 97.4589 76.1065 98.6062 77.2937C99.5806 78.3283 100.817 79.092 102.145 79.5834C104.442 80.4451 106.936 80.5634 109.364 80.4829C111.362 80.3821 113.371 80.0454 115.226 79.2782C116.658 78.6853 118.007 77.7991 118.945 76.5482C119.762 75.4695 120.2 74.1416 120.304 72.8004V71.5222C120.152 69.6945 119.387 67.9053 118.062 66.6222ZM40.9185 71.4494C40.1452 72.8414 38.9173 73.9255 37.4402 74.5203C35.5635 75.2784 33.3949 75.3834 31.4923 74.6561C29.8291 74.038 28.4193 72.8039 27.5373 71.2695C26.4495 69.404 26.103 67.1815 26.2633 65.0479C26.4453 62.8891 27.2685 60.7387 28.784 59.1609C29.8831 58.0139 31.3257 57.2556 32.8937 57.0007C34.6311 56.7347 36.4651 56.9573 38.0527 57.7266C39.4338 58.4 40.5412 59.5781 41.1817 60.9676C41.8712 62.4474 42.1134 64.0938 42.1393 65.7136C42.1652 67.6785 41.8901 69.7127 40.9185 71.4494ZM64.4938 73.821C64.0871 74.5406 63.4067 75.0782 62.6458 75.3848C61.7099 75.7775 60.6795 75.8482 59.6771 75.8153C58.1819 75.7719 56.6111 75.3869 55.4855 74.3488C54.6161 73.569 54.1135 72.4532 53.9126 71.3164C53.8895 71.0973 53.7404 70.8495 53.4898 70.8635C51.7489 70.8075 50.0066 70.8292 48.2657 70.776C48.2573 67.7779 48.2748 64.7791 48.2573 61.7803C48.4554 62.369 48.6836 62.9542 49.0357 63.4701C49.6965 64.4774 50.6786 65.2313 51.7314 65.7913C53.7033 66.8357 55.9125 67.2844 58.0811 67.7163C59.7275 68.0614 61.4075 68.3855 62.9251 69.1387C63.8022 69.5811 64.6583 70.2727 64.8984 71.2702C65.0702 72.1416 64.9268 73.0456 64.4938 73.821ZM69.1131 66.3142C67.8062 65.1382 66.1878 64.3689 64.5295 63.8257C62.769 63.2349 60.9231 62.9892 59.1339 62.5146C58.1861 62.2612 57.2341 61.9728 56.3864 61.4695C55.7564 61.0929 55.1901 60.5406 54.9577 59.828C54.6847 59.0006 54.7624 58.0332 55.2685 57.3087C55.7011 56.6682 56.4081 56.2678 57.1354 56.0487C58.1245 55.7631 59.1738 55.7456 60.1916 55.8702C61.2402 56.0046 62.2832 56.4148 63.0392 57.1715C63.7154 57.8197 64.134 58.7017 64.3118 59.6145C64.3433 59.8539 64.4959 60.1178 64.7668 60.1122C66.5903 60.1325 68.4145 60.1556 70.238 60.1591C69.4211 62.0967 69.0648 64.2149 69.1131 66.3142ZM90.3532 71.2373C89.649 72.5666 88.5101 73.6495 87.1738 74.3355C85.638 75.1104 83.8481 75.3022 82.159 75.039C80.7395 74.8168 79.4159 74.1844 78.351 73.2197C77.2737 72.281 76.5478 70.9951 76.1187 69.6462C75.5937 67.976 75.4691 66.1924 75.67 64.4564C75.9136 62.558 76.5968 60.64 77.952 59.2449C79.178 57.9529 80.823 57.1385 82.5937 56.9468C84.0798 56.7844 85.6219 56.9832 86.9785 57.6321C88.4233 58.3307 89.6511 59.4892 90.398 60.9151C91.161 62.3627 91.5208 64.0042 91.5572 65.6338C91.609 67.5574 91.2695 69.5279 90.3532 71.2373ZM112.395 74.7037C111.577 75.41 110.494 75.7215 109.435 75.7999C107.986 75.8797 106.471 75.7579 105.161 75.081C104.08 74.5364 103.239 73.555 102.837 72.4147C102.655 71.9884 102.613 71.5215 102.47 71.0854C102.32 70.7753 101.928 70.8803 101.652 70.8432C100.195 70.839 98.7372 70.7963 97.2812 70.7998C98.0274 68.5514 98.196 66.135 97.8979 63.7914C98.8974 65.1025 100.395 65.9131 101.912 66.4836C104.432 67.4412 107.146 67.6694 109.718 68.4296C110.701 68.732 111.689 69.1002 112.501 69.7484C113.04 70.1761 113.464 70.7851 113.567 71.476C113.723 72.6527 113.31 73.9232 112.395 74.7037Z" fill="#040404"/>
</svg>
