<svg width="96" height="112" viewBox="0 0 96 112" fill="none" xmlns="http://www.w3.org/2000/svg">
<g clip-path="url(#clip0)">
<path fill-rule="evenodd" clip-rule="evenodd" d="M87.282 -6.10352e-05H8.71797C2.35008 -6.10352e-05 0 2.3627 0 8.76793V86.0569C0 86.7818 0.0290733 87.4551 0.0927601 88.0789C0.237737 89.477 0.265032 90.8318 1.55835 92.3743C1.68473 92.5254 3.00515 93.5133 3.00515 93.5133C3.71539 93.8635 4.20036 94.1214 5.00139 94.4455L43.6874 110.741C45.6957 111.667 46.5355 112.027 47.9941 111.998V111.999C47.9961 111.999 47.9979 111.999 47.9999 111.999C48.0019 111.999 48.0036 111.999 48.0056 111.999V111.998C49.4643 112.027 50.3041 111.667 52.3126 110.741L90.9984 94.4455C91.7996 94.1214 92.2844 93.8635 92.9948 93.5133C92.9948 93.5133 94.3152 92.5254 94.4414 92.3743C95.7347 90.8318 95.762 89.477 95.907 88.0789C95.9707 87.4551 96 86.7818 96 86.0569V8.76793C96 2.3627 93.6497 -6.10352e-05 87.282 -6.10352e-05Z" fill="#2F2D2E"/>
<path d="M82.0198 77.7036L82.002 77.882L81.9844 78.0778L81.9488 78.2562L81.8958 78.4344L81.8614 78.5948L81.808 78.7732L81.7372 78.9337L81.6662 79.0765L81.5963 79.2367L81.5077 79.3793L81.4191 79.5221L81.3137 79.6647L81.2249 79.8073L81.1197 79.9319L80.9955 80.0568L80.89 80.1638L80.7484 80.2887L80.6252 80.3957L80.4834 80.5026L80.3426 80.5905L80.2018 80.6975L80.0421 80.7866L79.8835 80.858L79.7251 80.9471L79.5477 81.0185L79.3714 81.0898L79.1952 81.1431L79.019 81.1968L78.8594 81.2501L78.6832 81.2859L78.5245 81.3215L78.3661 81.3571L78.1887 81.3929L78.0123 81.4106L77.8538 81.4285L77.6764 81.4464L77.4826 81.4643L77.3062 81.482H77.1299H76.9359H76.7409H76.5647L76.3883 81.4643H76.1944L76.018 81.4464L75.8408 81.4285L75.6468 81.4106L75.4705 81.375L75.2943 81.3571L75.1169 81.3215L74.9405 81.2859L74.7642 81.2501L74.588 81.2145L74.4108 81.1612L74.2522 81.1254L74.0759 81.072L73.8995 81.0185L73.7401 80.9471L73.5639 80.8936L73.4053 80.8403L73.2288 80.7689L73.0694 80.6975L72.9108 80.6261L72.7522 80.5382L72.5928 80.4668L72.4341 80.3776L72.2933 80.2887L72.1337 80.1994L71.9929 80.1103L71.8511 80.0212L71.7102 79.9142L71.5694 79.8073L71.4276 79.7003L71.2866 79.5933L71.1626 79.4863L71.0218 79.3616L71.1282 79.219L71.2512 79.0942L71.3576 78.9514L71.4808 78.8088L71.5872 78.6841L71.6924 78.5416L71.8166 78.3988L71.9219 78.2741L72.0461 78.1315L72.1515 78.0066L72.2755 77.8641L72.3809 77.7213L72.4873 77.5966L72.6104 77.454L72.7168 77.3113L72.8398 77.1866L72.9462 77.044L73.087 77.151L73.2456 77.258L73.3875 77.3649L73.5461 77.4719L73.6879 77.561L73.8465 77.6678L73.9871 77.7571L74.147 77.8283L74.2876 77.9176L74.4462 77.9889L74.6058 78.0601L74.7642 78.1315L74.9231 78.185L75.0825 78.2562L75.2587 78.3097L75.4351 78.3632L75.5936 78.4167L75.771 78.4525L75.9472 78.4881L76.1234 78.5237L76.3174 78.5416L76.4947 78.5772H76.6711L76.8649 78.5948H77.0413H77.253L77.447 78.5772L77.6244 78.5416L77.7828 78.5058L77.9415 78.4702L78.0833 78.4167L78.2065 78.3455L78.3483 78.2385L78.4535 78.1136L78.5245 77.9709L78.5779 77.8106L78.5953 77.6322V77.5966L78.5779 77.3826L78.5069 77.2043L78.4181 77.0796L78.2951 76.9726L78.1531 76.8656L78.0123 76.7944L77.8538 76.7231L77.6764 76.6517L77.4648 76.5628L77.3416 76.527L77.201 76.4914L77.0413 76.4377L76.8827 76.4021L76.7065 76.3486L76.5291 76.313L76.3352 76.2595L76.1588 76.2239L75.9648 76.1704L75.7886 76.1348L75.6112 76.0814L75.4351 76.0456L75.2587 75.9921L75.0991 75.9388L74.9231 75.903L74.7642 75.8495L74.6058 75.796L74.4462 75.7425L74.2522 75.6711L74.0759 75.5997L73.8995 75.5285L73.7223 75.4572L73.5639 75.3681L73.3875 75.279L73.2456 75.1899L73.087 75.1008L72.9462 74.9938L72.8044 74.9047L72.6814 74.7976L72.5574 74.6729L72.4341 74.548L72.3277 74.4231L72.2225 74.2984L72.1337 74.1738L72.0461 74.031L71.9575 73.8707L71.8865 73.747L71.8333 73.6043L71.7812 73.4438L71.728 73.3012L71.6924 73.1228L71.657 72.9624L71.6392 72.7842L71.6216 72.6058L71.6038 72.4099V72.2137V72.1781V71.9997L71.6216 71.8215L71.6392 71.6611L71.657 71.4827L71.6924 71.3224L71.728 71.162L71.7812 71.0013L71.8166 70.841L71.8865 70.6805L71.9575 70.5201L72.0283 70.3598L72.1161 70.1991L72.2045 70.0388L72.3099 69.8961L72.4165 69.7535L72.5396 69.6109L72.6636 69.4862L72.7868 69.3434L72.9286 69.2186L73.0516 69.1295L73.1934 69.0225L73.3345 68.9155L73.4751 68.8264L73.6347 68.7373L73.7933 68.666L73.9517 68.5769L74.1114 68.5057L74.2876 68.452L74.4638 68.3808L74.6234 68.3273L74.7642 68.2915L74.9231 68.2559L75.0825 68.2203L75.2587 68.1847L75.4173 68.1489L75.5936 68.1312L75.771 68.1133L75.9472 68.0955L76.1234 68.0778H76.2996H76.4947H76.6889H76.8827L77.0767 68.0955L77.2708 68.1133H77.447L77.642 68.1312L77.8182 68.1668L78.0123 68.1847L78.1887 68.2203L78.3483 68.2559L78.5245 68.2915L78.7008 68.3273L78.8594 68.3629L79.0366 68.4164L79.1952 68.4699L79.3538 68.5057L79.5311 68.5769L79.6897 68.6304L79.8481 68.7016L80.0067 68.7729L80.1839 68.8443L80.3426 68.9334L80.4834 69.0048L80.643 69.0939L80.8016 69.183L80.9425 69.2723L81.1019 69.3792L81.2429 69.4681L81.3847 69.5753L81.5255 69.6823L81.6662 69.7891L81.5609 69.9319L81.4723 70.0744L81.3669 70.217L81.2605 70.3598L81.1553 70.5201L81.0665 70.6626L80.9601 70.8054L80.8546 70.948L80.7662 71.0906L80.6606 71.2333L80.5544 71.3759L80.4656 71.5185L80.3604 71.679L80.2538 71.8215L80.1485 71.9641L80.0599 72.1067L79.9545 72.2493L79.8127 72.1425L79.6543 72.0532L79.5133 71.9641L79.3714 71.8571L79.213 71.7859L79.071 71.6967L78.9126 71.6253L78.7718 71.5541L78.6122 71.4827L78.4713 71.4115L78.3129 71.358L78.1711 71.2866L77.9769 71.2333L77.8006 71.1797L77.6244 71.1264L77.447 71.0906L77.2708 71.055L77.0945 71.0192L76.9183 71.0013L76.7409 70.9836L76.5825 70.9657H76.4061H76.1944L76.0004 71.0013L75.823 71.0371L75.6646 71.0727L75.5237 71.1441L75.3995 71.2152L75.2409 71.358L75.1345 71.5185L75.0649 71.679L75.0469 71.8571V71.8929L75.0649 72.1246L75.1523 72.3207L75.2233 72.4276L75.3463 72.5525L75.5059 72.6416L75.6468 72.7307L75.823 72.8021L76.018 72.8735L76.2298 72.9447L76.3706 72.9803L76.5115 73.0337L76.6711 73.0693L76.8295 73.1228L77.0057 73.1586L77.201 73.2121L77.395 73.2654L77.589 73.3191L77.7828 73.3547L77.9591 73.4082L78.1531 73.4617L78.3305 73.4973L78.5069 73.5508L78.6832 73.6043L78.8416 73.6577L79.019 73.7112L79.1776 73.7647L79.336 73.8182L79.5311 73.8884L79.7073 73.9777L79.8835 74.0489L80.0599 74.138L80.2196 74.2273L80.3782 74.3163L80.5188 74.4054L80.6606 74.5124L80.8016 74.6015L80.9425 74.7264L81.0843 74.8511L81.2073 74.9938L81.3313 75.1185L81.4367 75.2613L81.5431 75.4216L81.6307 75.5641L81.7196 75.7248L81.7904 75.8674L81.8436 76.0277L81.8958 76.1881L81.9312 76.3486L81.9666 76.527L82.002 76.7054L82.0198 76.8835L82.0376 77.0796V77.2757V77.3113V77.5075L82.0198 77.7036ZM69.6396 81.2682H69.4624H69.2862H69.11H68.9337H68.7563H68.5799H68.4039H68.2274H68.0324H67.8562H67.68H67.5037H67.3261H67.1501H66.9737H66.7975H66.62H66.4438H66.2676H66.0914H65.9149H65.7377H65.5615H65.3853H65.2088H65.0314H64.8552H64.679H64.485H64.3077H64.1313H63.9551H63.7789H63.6016H63.4252H63.249H63.0726H62.8954H62.7191H62.5429H62.3665H62.1891H62.013H61.8366H61.6604H61.4832H61.3067H61.1127H60.9365H60.7603H60.5828H60.4066H60.2302H60.0542H59.877H59.7005H59.5243V81.0898V80.9115V80.7333V80.5559V80.3776V80.1994V80.0212V79.843V79.6647V79.4863V79.3081V79.1298V78.9514V78.7732V78.5948V78.4167V78.2385V78.0601V77.8997V77.7213V77.5431V77.3649V77.1866V77.0082V76.83V76.6517V76.4733V76.2951V76.117V75.9388V75.7604V75.582V75.4039V75.2255V75.0471V74.869V74.6906V74.5124V74.3342V74.1559V73.9777V73.8003V73.6222V73.4438V73.2654V73.0872V72.9091V72.7307V72.5525V72.3742V72.1958V72.0176V71.8392V71.6611V71.5006V71.3224V71.1441V70.9657V70.7875V70.6091V70.431V70.2526V70.0744V69.8961V69.7179V69.5395V69.3611V69.183V69.0048V68.8264V68.6483V68.4699V68.2915H59.7005H59.877H60.0542H60.2302H60.4066H60.5828H60.7603H60.9365H61.1127H61.2891H61.4664H61.6428H61.8188H61.9952H62.1546H62.3311H62.5073H62.6837H62.8609H63.0372H63.2134H63.3898H63.567H63.7433H63.9195H64.0959H64.2733H64.4496H64.6258H64.802H64.9794H65.1558H65.3319H65.5081H65.6845H65.8619H66.0382H66.2144H66.3906H66.568H66.7443H66.9205H67.0967H67.2565H67.4327H67.609H67.7854H67.9626H68.1388H68.3151H68.4913H68.6687H68.8449H69.0212H69.1976H69.3748H69.5512H69.7274V68.4699V68.6304V68.8085V68.9869V69.1651V69.3256V69.5039V69.6823V69.8426V70.0209V70.1991V70.3598V70.538V70.7161V70.8945V71.055V71.2333H69.5512H69.3748H69.1976H69.0212H68.8449H68.6687H68.5091H68.3329H68.1566H67.9802H67.803H67.6268H67.4503H67.2741H67.0967H66.9205H66.7443H66.568H66.3906H66.2322H66.0558H65.8795H65.7021H65.5261H65.3497H65.1734H64.996H64.8198H64.6436H64.4674H64.2899H64.1135H63.9551H63.7789H63.6016H63.4252H63.249H63.0726H62.8954V71.4115V71.5897V71.7679V71.9462V72.1246V72.2851V72.4632V72.6416V72.8198V72.9982V73.1763V73.3547H63.0726H63.249H63.4252H63.6016H63.7789H63.9551H64.1313H64.3077H64.4674H64.6436H64.8198H64.996H65.1734H65.3497H65.5261H65.7021H65.8795H66.0558H66.2322H66.4084H66.5856H66.7619H66.9383H67.1147H67.2919H67.4681H67.6268H67.803H67.9802H68.1566H68.3329H68.5091H68.6863H68.8627H69.039V73.5329V73.6933V73.8707V74.0489V74.2094V74.3875V74.5659V74.7264V74.9047V75.0829V75.2613V75.4216V75.5997V75.7781V75.9388V76.117H68.8627H68.6863H68.5091H68.3329H68.1566H67.9802H67.803H67.6268H67.4681H67.2919H67.1147H66.9383H66.7619H66.5856H66.4084H66.2322H66.0558H65.8795H65.7021H65.5261H65.3497H65.1734H64.996H64.8198H64.6436H64.4674H64.3077H64.1313H63.9551H63.7789H63.6016H63.4252H63.249H63.0726H62.8954V76.2951V76.4914V76.6696V76.8479V77.044V77.2224V77.4005V77.5966V77.7748V77.9532V78.1492V78.3274H63.0726H63.249H63.4252H63.6016H63.7789H63.9551H64.1313H64.3077H64.485H64.679H64.8552H65.0314H65.2088H65.3853H65.5615H65.7377H65.9149H66.0914H66.2676H66.4438H66.62H66.7975H66.9737H67.1501H67.3261H67.5037H67.68H67.8562H68.0324H68.2274H68.4039H68.5799H68.7563H68.9337H69.11H69.2862H69.4624H69.6396H69.8161V78.5058V78.6662V78.8446V79.0228V79.2011V79.3616V79.5398V79.718V79.8786V80.0568V80.235V80.3957V80.5728V80.751V80.9292V81.0898V81.2682H69.6396ZM56.7413 81.2682H56.565H56.3886H56.1938H56.0176H55.8411H55.6649H55.4875H55.3113H55.1173H54.941H54.7646H54.5874H54.4112H54.2349H54.0409H53.8635H53.6873H53.5108V81.0898V80.9115V80.7333V80.5549V80.3756V80.1974V80.019V79.8407V79.6625V79.4843V79.3059V79.1268V78.9484V78.77V78.5919V78.4135V78.2341V78.0558V77.8776V77.6994V77.521V77.3429V77.1635V76.9853V76.807V76.6286V76.4504V76.2721V76.0927V75.9143V75.7361V75.558V75.3798V75.2014V75.0221V74.8439V74.6655V74.4874V74.309V74.1296V73.9515V73.7731V73.5947L53.4224 73.7373L53.317 73.899L53.2282 74.0415L53.123 74.1843L53.0344 74.3446L52.9278 74.4874L52.8404 74.6299L52.7515 74.7914L52.6463 74.934L52.5575 75.0766L52.4513 75.2193L52.3637 75.3808L52.2573 75.5234L52.1697 75.666L52.0809 75.8264L51.9744 75.97L51.8868 76.1128L51.7804 76.2731L51.693 76.4158L51.5866 76.5584L51.499 76.7199L51.4102 76.8626L51.304 77.0052L51.2163 77.1657L51.1099 77.3093L51.0223 77.4518L50.9159 77.5946L50.8271 77.7549L50.7395 77.8985L50.6333 78.0412L50.5457 78.2017L50.4392 78.3443L50.3506 78.4869L50.2452 78.6485L50.1566 78.7911H50.0866L49.9804 78.6306L49.8916 78.4869L49.7862 78.3264L49.6975 78.1838L49.5921 78.0235L49.5035 77.8798L49.3983 77.7193L49.3095 77.5765L49.2031 77.4163L49.1155 77.2737L49.0091 77.112L48.9216 76.9694L48.8152 76.809L48.7264 76.6664L48.6212 76.5049L48.5324 76.3623L48.4272 76.2019L48.3208 76.0593L48.2322 75.8978L48.1267 75.7552L48.0381 75.5948L47.9327 75.4522L47.8441 75.2905L47.7387 75.1479L47.6501 74.9875L47.5437 74.8449L47.456 74.6844L47.3496 74.5407L47.262 74.3804L47.1556 74.2376L47.067 74.0771L46.9618 73.9347L46.8728 73.7731L46.7676 73.6305V73.8087V73.987V74.1654V74.3446V74.523V74.7011V74.8795V75.0579V75.237V75.4154V75.5759V75.754V75.9324V76.1106V76.29V76.4683V76.6465V76.8247V77.003V77.1814V77.3606V77.5389V77.7173V77.8955V78.0739V78.252V78.4314V78.6096V78.7879V78.9661V79.1445V79.3236V79.4843V79.6625V79.8407V80.019V80.1974V80.3756V80.5549V80.7333V80.9115V81.0898V81.2682H46.5913H46.4141H46.2377H46.0615H45.8852H45.708H45.5316H45.3554H45.1789H45.0017H44.8255H44.6491H44.4729H44.2956H44.1194H43.943H43.7666H43.5893H43.4131V81.0898V80.9115V80.7333V80.5559V80.3776V80.1994V80.0212V79.843V79.6647V79.4863V79.3081V79.1298V78.9514V78.7732V78.5948V78.4167V78.2385V78.0601V77.8997V77.7213V77.5431V77.3649V77.1866V77.0082V76.83V76.6517V76.4733V76.2951V76.117V75.9388V75.7604V75.582V75.4039V75.2255V75.0471V74.869V74.6906V74.5124V74.3342V74.1559V73.9777V73.8003V73.6222V73.4438V73.2654V73.0872V72.9091V72.7307V72.5525V72.3742V72.1958V72.0176V71.8392V71.6611V71.5006V71.3224V71.1441V70.9657V70.7875V70.6091V70.431V70.2526V70.0744V69.8961V69.7179V69.5395V69.3611V69.183V69.0048V68.8264V68.6483V68.4699V68.2915H43.5893H43.7666H43.9254H44.1014H44.2778H44.4551H44.6137H44.7899H44.9673H45.1435H45.3022H45.4784H45.6558H45.832H45.9905H46.1667H46.3441H46.5205H46.679H46.8552H47.0326L47.1202 68.4343L47.2088 68.5946L47.314 68.7362L47.4028 68.8966L47.4915 69.0392L47.5791 69.1999L47.6677 69.3413L47.7733 69.5019L47.8617 69.6445L47.9505 69.7871L48.0381 69.9464L48.1267 70.0891L48.2322 70.2494L48.3208 70.3922L48.4094 70.5515L48.497 70.6941L48.6034 70.8366L48.6922 70.9963L48.7796 71.1387L48.8682 71.2992L48.9561 71.4419L49.0625 71.6012L49.1511 71.744L49.2385 71.9043L49.3273 72.0459L49.4149 72.1884L49.5213 72.3489L49.6099 72.4917L49.6975 72.6522L49.7862 72.7937L49.8738 72.9542L49.9804 73.0968L50.069 73.2561L50.1566 73.3988L50.2452 73.2561L50.3338 73.0968L50.4392 72.9542L50.5277 72.7937L50.6155 72.6522L50.7041 72.4917L50.8095 72.3489L50.8981 72.1884L50.9869 72.0459L51.0743 71.9043L51.1807 71.744L51.2684 71.6012L51.3572 71.4419L51.4456 71.2992L51.551 71.1387L51.6396 70.9963L51.7284 70.8366L51.8158 70.6941L51.9048 70.5515L52.01 70.3922L52.0987 70.2494L52.1873 70.0891L52.2751 69.9464L52.3813 69.7871L52.4691 69.6445L52.5575 69.5019L52.6463 69.3413L52.7515 69.1999L52.8404 69.0392L52.9278 68.8966L53.0166 68.7362L53.123 68.5946L53.2106 68.4343L53.2992 68.2915H53.4754H53.6519H53.8113H53.9877H54.1639H54.3402H54.4998H54.6762H54.8522H55.0286H55.1883H55.3645H55.5407H55.7171H55.8766H56.053H56.2292H56.4054H56.565H56.7413H56.9175V68.4699V68.6483V68.8264V69.0048V69.183V69.3611V69.5395V69.7179V69.8961V70.0744V70.2526V70.431V70.6091V70.7875V70.9657V71.1441V71.3224V71.5006V71.6611V71.8392V72.0176V72.1958V72.3742V72.5525V72.7307V72.9091V73.0872V73.2654V73.4438V73.6222V73.8003V73.9777V74.1559V74.3342V74.5124V74.6906V74.869V75.0471V75.2255V75.4039V75.582V75.7604V75.9388V76.117V76.2951V76.4733V76.6517V76.83V77.0082V77.1866V77.3649V77.5431V77.7213V77.8997V78.0601V78.2385V78.4167V78.5948V78.7732V78.9514V79.1298V79.3081V79.4863V79.6647V79.843V80.0212V80.1994V80.3776V80.5559V80.7333V80.9115V81.0898V81.2682H56.7413ZM36.2588 75.9209L36.2056 75.7594L36.1358 75.581L36.0648 75.4206L36.0116 75.2591L35.9418 75.0986L35.871 74.9203L35.8176 74.7588L35.7466 74.5983L35.677 74.438L35.6236 74.2766L35.5525 74.0982L35.5005 73.9377L35.4295 73.7763L35.3585 73.6158L35.3055 73.4553L35.2355 73.2761L35.1647 73.1155L35.1115 72.9552L35.0405 72.7937L34.9707 72.6154L34.9175 72.4539L34.8465 72.2934L34.7766 72.4539L34.7236 72.6154L34.6526 72.7937L34.5816 72.9552L34.5294 73.1155L34.4586 73.2761L34.3876 73.4553L34.3178 73.6158L34.2644 73.7763L34.1936 73.9377L34.1226 74.0982L34.0703 74.2766L33.9995 74.438L33.9285 74.5983L33.8755 74.7588L33.8055 74.9203L33.7345 75.0986L33.6637 75.2591L33.6117 75.4206L33.5407 75.581L33.4697 75.7594L33.4165 75.9209L33.3466 76.0814H33.5229H33.6991H33.8755H34.0527H34.229H34.4052H34.5816H34.759H34.9175H35.0937H35.2711H35.4473H35.6236H35.8H35.9762H36.1534H36.3296L36.2588 75.9209ZM41.8028 81.2682H41.6255H41.4667H41.2907H41.1133H40.937H40.7606H40.6022H40.4248H40.2486H40.0723H39.8959H39.7187H39.5601H39.3838H39.2074H39.0302H38.854H38.6954H38.5191H38.3419L38.2719 81.1075L38.2187 80.9471L38.1479 80.7866L38.0769 80.6084L38.0247 80.4489L37.9539 80.2887L37.8829 80.1282L37.8306 79.9677L37.7598 79.8073L37.6888 79.6468L37.6358 79.4863L37.5658 79.3081L37.4948 79.1477L37.4416 78.9872L37.3706 78.8267H37.1944H37.0181H36.8419H36.6657H36.5061H36.3296H36.1534H35.9762H35.8H35.6236H35.4473H35.2711H35.0937H34.9175H34.759H34.5816H34.4052H34.229H34.0527H33.8755H33.6991H33.5229H33.3466H33.1704H33.0106H32.8346H32.6582H32.4807H32.3045L32.2347 78.9872L32.1815 79.1477L32.1105 79.3081L32.0397 79.4863L31.9875 79.6468L31.9167 79.8073L31.8457 79.9677L31.7925 80.1282L31.7226 80.2887L31.6516 80.4489L31.5984 80.6084L31.5284 80.7866L31.4576 80.9471L31.4044 81.1075L31.3334 81.2682H31.1572H30.9809H30.8047H30.6273H30.4511H30.257H30.0808H29.9044H29.7272H29.551H29.3747H29.1983H29.0209H28.8449H28.6686H28.4746H28.2972H28.121H27.9445H27.7683L27.8381 81.1075L27.9091 80.9471L27.9799 80.7866L28.05 80.6084L28.1032 80.4489L28.1742 80.2887L28.245 80.1282L28.3148 79.9677L28.3858 79.8073L28.4568 79.6289L28.5266 79.4684L28.5976 79.3081L28.6506 79.1477L28.7216 78.9872L28.7915 78.8267L28.8625 78.6485L28.9333 78.4881L29.0033 78.3274L29.0743 78.1671L29.1451 78.0066L29.1983 77.8462L29.2681 77.6678L29.3391 77.5075L29.4101 77.3471L29.48 77.1866L29.551 77.0261L29.622 76.8656L29.6918 76.6873L29.745 76.527L29.816 76.3665L29.8868 76.206L29.9568 76.0456L30.0276 75.8851L30.0984 75.7069L30.1684 75.5464L30.2392 75.386L30.2925 75.2255L30.3635 75.0652L30.4333 74.9047L30.5043 74.7264L30.5753 74.5659L30.6451 74.4054L30.7159 74.245L30.7869 74.0847L30.8401 73.924L30.9101 73.7647L30.9809 73.5864L31.0518 73.4261L31.1218 73.2654L31.1926 73.1049L31.2636 72.9447L31.3334 72.7842L31.3866 72.6058L31.4576 72.4455L31.5284 72.2851L31.5984 72.1246L31.6694 71.9641L31.7402 71.8036L31.8103 71.6253L31.8811 71.465L31.9343 71.3045L32.0051 71.1441L32.0751 70.9836L32.1459 70.8231L32.2169 70.6449L32.2867 70.4845L32.3577 70.324L32.4287 70.1635L32.4807 70.0032L32.5518 69.8426L32.6228 69.6644L32.6938 69.5039L32.7636 69.3434L32.8346 69.183L32.9054 69.0225L32.9752 68.8622L33.0286 68.6839L33.0994 68.5234L33.1704 68.3629L33.2402 68.2024H33.4165H33.5761H33.7523H33.9285H34.1059H34.2644H34.4406H34.617H34.7944H34.9531H35.1291H35.3055H35.4827H35.6414H35.8176H35.9938H36.1712H36.3296H36.5061L36.5769 68.3629L36.6479 68.5234L36.7179 68.6839L36.7887 68.8622L36.8419 69.0225L36.9117 69.183L36.9827 69.3434L37.0535 69.5039L37.1245 69.6644L37.1944 69.8426L37.2654 70.0032L37.3364 70.1635L37.3884 70.324L37.4594 70.4845L37.5304 70.6449L37.6014 70.8231L37.6712 70.9836L37.742 71.1441L37.813 71.3045L37.8829 71.465L37.9361 71.6253L38.0069 71.8036L38.0769 71.9641L38.1479 72.1246L38.2187 72.2851L38.2897 72.4455L38.3595 72.6058L38.4303 72.7842L38.4837 72.9447L38.5535 73.1049L38.6243 73.2654L38.6954 73.4261L38.7664 73.5864L38.8362 73.7647L38.9072 73.924L38.978 74.0847L39.0302 74.245L39.101 74.4054L39.172 74.5659L39.242 74.7264L39.3128 74.9047L39.3838 75.0652L39.4548 75.2255L39.5247 75.386L39.5779 75.5464L39.6487 75.7069L39.7187 75.8851L39.7895 76.0456L39.8605 76.206L39.9313 76.3665L40.0013 76.527L40.0723 76.6873L40.1253 76.8656L40.1954 77.0261L40.2662 77.1866L40.3372 77.3471L40.407 77.5075L40.478 77.6678L40.549 77.8462L40.62 78.0066L40.672 78.1671L40.743 78.3274L40.814 78.4881L40.8838 78.6485L40.9547 78.8267L41.0257 78.9872L41.0965 79.1477L41.1663 79.3081L41.2197 79.4684L41.2907 79.6289L41.3605 79.8073L41.4313 79.9677L41.5021 80.1282L41.5721 80.2887L41.6429 80.4489L41.714 80.6084L41.7674 80.7866L41.837 80.9471L41.908 81.1075L41.9788 81.2682H41.8028ZM26.3373 79.611L26.1955 79.718L26.0723 79.8073L25.9305 79.9142L25.7897 80.0033L25.6489 80.1103L25.507 80.1994L25.3662 80.2887L25.2066 80.3776L25.048 80.4668L24.8894 80.5559L24.7299 80.6261L24.5713 80.7154L24.3951 80.7866L24.2367 80.858L24.0593 80.9292L23.9008 81.0006L23.742 81.0541L23.5826 81.1075L23.424 81.1612L23.2477 81.2145L23.0893 81.2682L22.9119 81.3038L22.7533 81.3394L22.5771 81.375L22.3998 81.4106L22.2234 81.4285L22.0294 81.4464L21.8532 81.4643L21.6591 81.482L21.4817 81.4999L21.2879 81.5176H21.0939H20.8996H20.7058H20.5284L20.3522 81.4999L20.1581 81.482L19.9819 81.4643L19.8057 81.4464L19.6283 81.4285L19.452 81.3929L19.2756 81.3571L19.1172 81.3215L18.94 81.2859L18.7814 81.2324L18.6051 81.1968L18.4455 81.1431L18.2869 81.072L18.1283 81.0185L17.9522 80.9471L17.7926 80.8759L17.634 80.8047L17.4756 80.7333L17.3158 80.6442L17.1751 80.5559L17.0165 80.4668L16.8747 80.3776L16.7339 80.2887L16.5921 80.1815L16.4513 80.0747L16.3102 79.9677L16.1862 79.8607L16.0632 79.7538L15.939 79.6289L15.816 79.5221L15.6918 79.3972L15.5687 79.2723L15.4623 79.1477L15.3569 79.0051L15.2505 78.8802L15.1619 78.7376L15.0565 78.5948L14.9681 78.4525L14.8802 78.3097L14.7916 78.1492L14.703 78.0066L14.6332 77.8462L14.5622 77.6857L14.4914 77.5252L14.4214 77.3649L14.3682 77.2224L14.2972 77.0617L14.2618 76.9012L14.2096 76.7409L14.1741 76.5628L14.1209 76.4021L14.0855 76.2239L14.0677 76.0635L14.0321 75.8851L14.0147 75.7248L13.9967 75.5464L13.9801 75.3681L13.9625 75.1899V74.9938V74.8155V74.7799V74.6015L13.9801 74.4054V74.2273L13.9967 74.0489L14.0147 73.8528L14.0501 73.6756L14.0677 73.4973L14.1031 73.3368L14.1563 73.1586L14.1919 72.9803L14.244 72.8198L14.2972 72.6416L14.3504 72.4811L14.4214 72.3028L14.4914 72.1425L14.5622 71.982L14.6332 71.8215L14.703 71.6611L14.7916 71.5006L14.8802 71.358L14.9681 71.2152L15.0565 71.0727L15.1453 70.9301L15.2505 70.7875L15.3569 70.6449L15.4623 70.5024L15.5687 70.3773L15.6918 70.2526L15.7982 70.1277L15.9214 70.0032L16.0454 69.8782L16.1684 69.7714L16.3102 69.6465L16.4335 69.5395L16.5743 69.4325L16.7161 69.3434L16.8569 69.2365L16.9989 69.1474L17.1395 69.0583L17.2982 68.969L17.4578 68.8799L17.6162 68.7908L17.7748 68.7195L17.9342 68.6483L18.1107 68.559L18.2515 68.5057L18.4277 68.452L18.5875 68.3808L18.746 68.345L18.9044 68.2915L19.0816 68.2559L19.2402 68.2024L19.4164 68.1668L19.5929 68.1489L19.7701 68.1133L19.9465 68.0955L20.1225 68.0778L20.299 68.0599L20.4764 68.042H20.6704H20.8466H21.0405H21.2345L21.4297 68.0599L21.6237 68.0778H21.8L21.9762 68.0955L22.1702 68.1312L22.3298 68.1489L22.506 68.1847L22.6825 68.2203L22.8419 68.2559L23.0003 68.2915L23.1591 68.3273L23.3187 68.3808L23.4772 68.4164L23.618 68.4699L23.7776 68.5234L23.9362 68.5946L24.0947 68.666L24.2543 68.7373L24.4129 68.8264L24.5713 68.8978L24.7133 68.9869L24.8718 69.076L25.0126 69.1651L25.1722 69.2544L25.313 69.3611L25.4538 69.4504L25.5956 69.5574L25.7365 69.6644L25.8783 69.7891L26.0191 69.8961L25.9127 70.0388L25.7897 70.1635L25.6833 70.3061L25.5602 70.4487L25.4538 70.5914L25.3484 70.7161L25.2242 70.8587L25.119 71.0013L25.0126 71.1264L24.8894 71.2689L24.7831 71.4115L24.6599 71.5541L24.5535 71.679L24.4483 71.8215L24.3243 71.9641L24.2187 72.1067L24.0947 72.2316L23.9892 72.3742L23.8474 72.2672L23.7066 72.1425L23.5648 72.0532L23.424 71.9462L23.2831 71.8571L23.1413 71.7679L23.0003 71.679L22.8419 71.5897L22.7001 71.5185L22.5593 71.4471L22.4174 71.3936L22.2588 71.3401L22.1004 71.2866L21.9408 71.251L21.7646 71.2152L21.5883 71.1797L21.4119 71.162L21.2179 71.1441L21.0229 71.1264H20.8288H20.6526L20.4764 71.1441L20.3168 71.162L20.1405 71.1975L19.9819 71.2333L19.8223 71.2866L19.6639 71.3401L19.5053 71.4115L19.3466 71.4827L19.2048 71.5718L19.0642 71.6611L18.9222 71.7504L18.7992 71.8571L18.675 71.9641L18.5519 72.0711L18.4455 72.1958L18.3225 72.3207L18.2161 72.4632L18.1283 72.5881L18.0397 72.7307L17.9522 72.8912L17.8634 73.0337L17.7926 73.1942L17.7394 73.3547L17.6694 73.5152L17.6162 73.6933L17.5808 73.8707L17.5454 74.031L17.5098 74.2273L17.4922 74.4054L17.4756 74.5836V74.7799V74.8155V74.9938L17.4922 75.172L17.5098 75.3325L17.5276 75.5108L17.563 75.6711L17.5986 75.8318L17.634 75.9921L17.6872 76.1525L17.7394 76.2951L17.8104 76.4733L17.8812 76.634L17.9689 76.7944L18.0575 76.937L18.1461 77.0796L18.2515 77.2224L18.3579 77.3471L18.4809 77.4719L18.5875 77.5966L18.7104 77.7036L18.8524 77.8106L18.9932 77.9176L19.1338 78.0066L19.2756 78.0957L19.4344 78.1671L19.5929 78.2385L19.7523 78.3097L19.9287 78.3632L20.1049 78.4167L20.2823 78.4525L20.4586 78.4881L20.6348 78.5058L20.8288 78.5237H21.0229H21.2345L21.4297 78.5058L21.6237 78.4881L21.8 78.4702L21.9762 78.4344L22.1536 78.3988L22.3298 78.3455L22.4882 78.3097L22.6471 78.2385L22.7889 78.1671L22.9473 78.0957L23.0713 78.0245L23.2123 77.9353V77.7571V77.5789V77.4005V77.2224V77.0261V76.8479V76.6696V76.4914V76.313H23.0359H22.8765H22.7001H22.5238H22.3476H22.188H22.0116H21.8354H21.6591H21.4997H21.3233H21.1471H20.9706H20.8112H20.6348V76.1348V75.9744V75.796V75.6178V75.4395V75.279V75.1008V74.9224V74.7443V74.5836V74.4054V74.2273V74.0489V73.8884V73.7112H20.8112H20.9884H21.1649H21.3409H21.5173H21.6935H21.871H22.0472H22.2234H22.3998H22.5771H22.7533H22.9295H23.1057H23.2831H23.4596H23.6358H23.812H23.9892H24.1657H24.3419H24.5181H24.6953H24.8718H25.048H25.2242H25.4016H25.5778H25.7543H25.9305H26.1077H26.2839H26.4604V73.8884V74.0666V74.245V74.4054V74.5836V74.762V74.9401V75.1185V75.2969V75.4572V75.6355V75.8139V75.9921V76.1704V76.3486V76.527V76.6873V76.8656V77.044V77.2224V77.4005V77.5789V77.7571V77.9176V78.0957V78.2741V78.4525V78.6306V78.8088V78.9695V79.1477V79.3258V79.5042L26.3373 79.611Z" fill="white"/>
<path d="M20.6598 38.9301H28.3107V32.98H20.6598V20.8329H28.6153V14.8829H14.1628V57.8252H28.7363V51.8749H20.6598V38.9301Z" fill="white"/>
<path d="M75.4611 40.2201V49.9129C75.4611 51.6308 74.6714 52.4278 73.0327 52.4278H71.8176C70.1176 52.4278 69.3278 51.6308 69.3278 49.9129V22.7971C69.3278 21.0794 70.1176 20.2824 71.8176 20.2824H72.9107C74.5503 20.2824 75.3401 21.0794 75.3401 22.7971V31.2024H81.7153V22.429C81.7153 17.0924 79.1649 14.5157 73.883 14.5157H70.7246C65.4425 14.5157 62.8306 17.1533 62.8306 22.4908V50.2192C62.8306 55.557 65.4425 58.1943 70.7246 58.1943H73.9433C79.2266 58.1943 81.8371 55.557 81.8371 50.2192V40.2201H75.4611Z" fill="white"/>
<path d="M52.8988 57.8262H59.3969V14.8837H52.8988V57.8262Z" fill="white"/>
<path d="M43.4706 33.9623C43.4706 35.6802 42.682 36.4782 41.0424 36.4782H38.3701V20.6504H41.0424C42.682 20.6504 43.4706 21.4476 43.4706 23.1651V33.9623ZM42.074 14.8837H31.8729V57.8262H38.3701V42.2437H42.074C47.3571 42.2437 49.9678 39.6064 49.9678 34.2698V22.8588C49.9678 17.5212 47.3571 14.8837 42.074 14.8837Z" fill="white"/>
<path fill-rule="evenodd" clip-rule="evenodd" d="M29.4905 96.6547H66.6848L47.7002 102.949L29.4905 96.6547Z" fill="white"/>
</g>
<defs>
<clipPath id="clip0">
<rect width="96" height="112" fill="white"/>
</clipPath>
</defs>
</svg>
