<svg width="122" height="36" viewBox="0 0 122 36" fill="none" xmlns="http://www.w3.org/2000/svg">
<path fill-rule="evenodd" clip-rule="evenodd" d="M80.337 30.8544L77.6254 30.3714C77.0697 30.2714 76.5007 30.0714 76.5007 29.4414C76.5007 28.3214 77.8636 28.1514 78.67 28.1514C79.7375 28.1514 80.9575 28.5114 81.0242 29.6514H82.2251C82.168 28.8414 81.8344 27.2994 78.5175 27.2994C76.2138 27.2994 75.2483 28.4294 75.2483 29.5794C75.2483 30.8664 76.6494 31.2054 77.2708 31.3194L79.2152 31.6694C80.7754 31.9564 81.2387 32.2024 81.2387 32.9734C81.2387 34.0334 79.6774 34.2184 78.751 34.2184C77.5339 34.2184 76.1328 33.8284 76.1328 32.4914H74.9318C74.9318 33.1814 75.0891 33.7974 75.8964 34.3614C76.3186 34.6614 77.0068 35.0714 78.7653 35.0714C80.3923 35.0714 82.4825 34.5894 82.4825 32.8414C82.4825 31.6714 81.558 31.0944 80.3265 30.8684L80.337 30.8544ZM51.911 27.4504L47.8107 34.8304H49.3299L50.4689 32.6824H54.8438L55.9208 34.8304H57.5316L53.5856 27.4504H51.9177H51.911ZM44.5357 27.4504H40.1075V34.8304H41.4362V31.7164H44.5357C46.6764 31.7164 47.458 30.5544 47.458 29.5264C47.458 28.3344 46.3619 27.4504 44.5357 27.4504V27.4504ZM67.5708 34.7784H66.0678L64.0595 31.7844C64.0347 31.7444 63.9852 31.7244 63.9356 31.7164H63.9995C63.9804 31.7124 63.9575 31.7114 63.9347 31.7164H61.2373V34.8304H59.903V27.4504H64.335C66.1555 27.4504 67.2515 28.3344 67.2515 29.5264C67.2515 30.3764 66.7121 31.3164 65.3167 31.6164L67.5604 34.7784H67.5708ZM70.6971 34.7884H71.9581V29.5144H70.6961V34.7894L70.6971 34.7884ZM50.9236 31.8004L52.6678 28.5524H52.6992L54.31 31.8004H50.9264H50.9236ZM44.082 30.8654H41.4343V28.3054H44.1364C45.2325 28.3054 46.0836 28.6034 46.0836 29.5394C46.0836 30.5294 45.2734 30.8594 44.082 30.8594V30.8654ZM61.2364 30.8654H63.8832C65.0765 30.8654 65.8867 30.5354 65.8867 29.5394C65.8867 28.5994 65.0346 28.2994 63.9385 28.2994H61.2383V30.8594L61.2364 30.8654ZM71.9495 27.4114H70.6838V28.7414H71.9485V27.4114H71.9495ZM29.7661 0.94043C22.6243 0.94043 17.7567 6.22443 17.7567 12.6204C17.7567 19.3504 23.1323 24.1004 29.7632 24.1004C36.3913 24.1004 41.765 19.4164 41.765 12.6204C41.765 6.22343 36.8373 0.94043 29.7556 0.94043H29.7661ZM57.828 14.8204C61.8597 13.6904 62.2543 10.5404 62.2343 9.41643C61.9932 6.11643 59.8744 4.07043 56.0647 4.07043H44.9684V22.5404H47.4999V14.7944H54.7227L60.0373 22.5414H63.2265C63.2265 22.5414 59.4045 17.3314 57.829 14.8214L57.828 14.8204ZM108.544 20.5274V4.06743H106.083V22.5404H122V20.5254H108.546L108.544 20.5274ZM66.3718 22.5404H82.1174V20.5254H69.0711V14.0684H78.8663V12.0264H69.073V6.08043H82.1155V4.06843H66.3699V22.5404H66.3718ZM92.3159 4.07043L83.366 22.5404H86.3903L88.6778 17.7604H99.41L101.718 22.5404H104.713L95.7538 4.06843H92.3102L92.3159 4.07043ZM2.46192 20.5254V4.06843H0V22.5404H15.9153V20.5254H2.46097H2.46192ZM29.6813 21.8074C24.7441 21.8074 20.6742 17.6424 20.6742 12.6254C20.6742 7.61143 24.5535 3.24743 29.8795 3.24743C35.074 3.24743 38.8913 7.61143 38.8913 12.6254C38.8913 17.6424 34.6289 21.8074 29.6898 21.8074H29.6813ZM89.8139 15.4474L94.0363 6.62343L98.3063 15.4474H89.8139V15.4474ZM55.7292 12.6104H47.5038V6.25743H56.0113C57.9691 6.25743 59.0709 7.21743 59.4683 8.43343C59.7323 9.27043 59.5636 10.3674 59.1309 11.1134C58.4161 12.3494 57.0626 12.6104 55.7206 12.6104H55.7292ZM11.3898 10.6044H13.2141L16.5281 4.06843H13.8594L11.3908 10.6044H11.3898ZM120.227 3.85043C119.271 3.85043 118.462 4.62443 118.462 5.66343C118.462 6.71343 119.272 7.48343 120.23 7.48343C121.227 7.48343 121.979 6.66343 121.979 5.65843C121.979 4.62443 121.177 3.85043 120.225 3.85043H120.227ZM120.227 4.15543C121.022 4.15543 121.628 4.81543 121.628 5.65843C121.628 6.49443 121.056 7.17843 120.227 7.17843C119.423 7.17843 118.814 6.52843 118.814 5.66343C118.814 4.81143 119.426 4.15543 120.226 4.15543H120.227ZM119.554 4.61943V6.70943H119.857V5.80043H120.208L120.738 6.70743H121.076L120.514 5.78743C120.798 5.74743 121.035 5.59743 121.035 5.20243C121.035 4.74543 120.733 4.61243 120.33 4.61243H119.564L119.554 4.61943ZM119.857 4.87943H120.262C120.65 4.87943 120.71 5.03943 120.71 5.19143C120.71 5.39843 120.627 5.53143 120.249 5.53143H119.858V4.88043L119.857 4.87943ZM74.5534 1.08043L72.4203 3.59043L79.1113 1.08043H74.5534Z" fill="black"/>
</svg>
