<svg width="136" height="32" viewBox="0 0 136 32" fill="none" xmlns="http://www.w3.org/2000/svg">
<g clip-path="url(#clip0)">
<path fill-rule="evenodd" clip-rule="evenodd" d="M15.2496 0.0605469C23.6897 0.0605469 30.4993 7.20394 30.4993 15.983C30.4993 24.762 23.6897 31.9388 15.2496 31.9388C6.80958 31.9388 -7.62939e-06 24.7954 -7.62939e-06 15.983C-7.62939e-06 7.17056 6.84155 0.0605469 15.2496 0.0605469ZM15.2496 3.09816C22.0912 3.09816 27.622 8.87296 27.622 16.0164C27.622 20.7564 25.1603 24.9289 21.4838 27.1654C22.251 24.3614 22.5707 21.4907 22.4429 18.1861C23.2421 18.4197 23.6897 18.5533 24.4889 18.8203C23.5618 16.3835 22.5707 14.1804 21.26 11.944C20.1091 14.2472 18.5425 16.4169 16.976 18.1193L19.5336 17.9524C17.3277 22.0582 14.2266 24.061 10.2943 24.6285C9.39915 19.9886 10.0705 12.4113 15.0898 8.87296L15.6013 11.4099C16.5924 9.77423 18.5106 7.60451 19.9492 6.10239C17.6794 5.16774 15.0578 4.86732 12.5002 5.36802C12.9158 5.73521 13.4274 6.20253 13.843 6.56972C8.18429 9.07324 5.08321 13.179 3.03713 17.9524C2.94122 17.3182 2.90925 16.6506 2.90925 16.0164C2.90925 8.87296 8.44005 3.09816 15.2496 3.09816Z" fill="black"/>
<path d="M44.1185 23.7269C44.1185 23.9606 44.1185 24.1942 44.1185 24.4279C43.511 24.4279 42.9356 24.4279 42.3282 24.4279C42.3282 24.8618 42.3282 25.3292 42.3282 25.7631H44.3103C44.3103 25.9968 44.3103 26.2304 44.3103 26.4641H41.5609V21.8242H44.2783C44.2783 22.0579 44.2783 22.2915 44.2783 22.5252C43.6069 22.5252 42.9676 22.5252 42.2962 22.5252V23.6935C42.9036 23.7269 43.511 23.7269 44.1185 23.7269ZM38.4598 26.4307H35.7423V21.8242C35.9981 21.8242 36.2539 21.8242 36.5096 21.8242V25.7297H38.4918C38.4598 25.9634 38.4598 26.197 38.4598 26.4307ZM53.0061 21.8576L51.9831 23.0927C51.8552 23.0259 51.7273 22.9925 51.5994 22.9258L51.9831 21.8576C52.3028 21.8576 52.6544 21.8576 53.0061 21.8576ZM54.8284 22.6921C54.7325 22.7589 54.6685 22.8924 54.6685 23.1261C54.6685 23.5266 54.7964 23.6601 55.1481 23.7269L55.8514 23.7937C56.5548 23.8604 56.9704 24.261 56.9704 25.0621V25.3292C56.9704 25.5294 56.9384 25.7297 56.8745 25.8966C56.8105 26.0635 56.7146 26.197 56.5867 26.2972C56.4269 26.4307 56.2351 26.4641 56.0433 26.4975C55.8514 26.5308 55.6276 26.5308 55.4358 26.5308H53.9972C53.9972 26.2638 53.9972 25.9968 53.9972 25.7297H55.5637C55.6276 25.7297 55.6916 25.7297 55.7555 25.7297C56.0752 25.7297 56.267 25.663 56.2351 25.1623C56.2351 24.9286 56.1711 24.7951 56.1072 24.7283C56.0113 24.6615 55.8834 24.6282 55.7236 24.5948L54.9882 24.528C54.7325 24.4946 54.4448 24.4279 54.2529 24.2276C54.0611 24.0273 53.9332 23.7269 53.9332 23.2262C53.9332 23.1594 53.9332 23.0927 53.9332 22.9925C53.9652 22.4918 54.1251 22.1914 54.4128 22.0245C54.7005 21.8576 55.0842 21.8242 55.4678 21.8242H56.7786C56.7786 22.0913 56.7786 22.3583 56.7786 22.6253H55.3719C55.1161 22.6253 54.9243 22.6253 54.8284 22.6921ZM63.748 26.4307V21.8242H65.6662C65.826 21.8242 66.0498 21.891 66.2417 22.0245C66.4335 22.158 66.5614 22.3917 66.5614 22.7589V23.3263C66.5614 23.7269 66.3695 23.9272 66.2417 24.0607C66.3695 24.1608 66.5614 24.3945 66.5614 24.7617V25.4961C66.5614 25.9968 66.1457 26.4307 65.6662 26.4307H63.748ZM65.7301 24.4946C65.6982 24.4613 65.6023 24.3945 65.5383 24.3945H64.4833V25.6963H65.5383C65.6023 25.6963 65.6662 25.663 65.7301 25.5962C65.7621 25.5628 65.7941 25.4961 65.7941 25.3959V24.6949C65.826 24.6616 65.7941 24.5614 65.7301 24.4946ZM65.7621 22.6253C65.6982 22.5586 65.6342 22.5252 65.5383 22.5252H64.4833V23.6935H65.5703C65.6342 23.6935 65.6982 23.6601 65.7621 23.5934C65.826 23.5266 65.858 23.4265 65.858 23.3597V22.8256C65.826 22.7922 65.7941 22.6921 65.7621 22.6253ZM93.4161 23.7269H95.2064C95.2064 23.9606 95.2064 24.1942 95.2064 24.4279H93.4161V25.7631H95.3982C95.3982 25.9968 95.3982 26.2304 95.3982 26.4641H92.6808V21.8242C93.5759 21.8242 94.5031 21.8242 95.3982 21.8242C95.3982 22.0579 95.3982 22.2915 95.3982 22.5252H93.4161V23.7269ZM89.228 26.4307H86.7663V21.8242C87.0221 21.8242 87.2779 21.8242 87.5336 21.8242V25.7297H89.228C89.228 25.9634 89.228 26.197 89.228 26.4307ZM83.8251 22.5586H82.7062V26.4307C82.4504 26.4307 82.1946 26.4307 81.9389 26.4307V22.5586H80.8199C80.8199 22.3249 80.8199 22.0913 80.8199 21.8576H83.8251C83.8251 22.0913 83.8251 22.3249 83.8251 22.5586ZM77.8467 22.5586H76.7278V26.4307C76.472 26.4307 76.2163 26.4307 75.9605 26.4307V22.5586H74.8416C74.8416 22.3249 74.8416 22.0913 74.8416 21.8576H77.8467C77.8467 22.0913 77.8467 22.3249 77.8467 22.5586ZM70.142 25.4627L69.9182 26.4641H69.1189L70.3338 21.8576C70.6535 21.8576 70.9732 21.8576 71.3249 21.8576L72.5397 26.4641C72.284 26.4641 71.9962 26.4641 71.7405 26.4641L71.4847 25.4627H70.142ZM70.3018 24.7617H71.2609L70.7814 22.7589L70.3018 24.7617ZM50.0009 22.5586C49.6173 22.5586 49.2656 22.5586 48.882 22.5586V26.4307C48.6262 26.4307 48.3705 26.4307 48.1147 26.4307V22.5586C47.7311 22.5586 47.3794 22.5586 46.9958 22.5586C46.9958 22.3249 46.9958 22.0913 46.9958 21.8576H50.0009C50.0009 22.0913 50.0009 22.3249 50.0009 22.5586Z" fill="black"/>
<path d="M38.9074 9.2726L39.9944 15.7484H42.4241L45.1095 5.56738H42.7438L41.2732 12.1767L40.2501 5.56738H39.1951H38.6196H37.5646L36.5416 12.1767L35.071 5.56738H32.7052L35.3907 15.7484H37.8204L38.9074 9.2726Z" fill="black"/>
<path d="M46.6121 15.7484L47.0597 13.6454H49.5214L49.969 15.7484H52.1749L49.4894 5.56738H47.0597L44.4062 15.7484H46.6121ZM48.3065 8.07091L49.1377 11.9096H47.4753L48.3065 8.07091Z" fill="black"/>
<path d="M55.4039 11.9428H56.7466L58.0574 15.7482H60.4871L58.7607 11.5089C59.496 11.2418 59.9756 10.5742 59.9756 9.77311V7.50325C59.9756 6.5686 59.3681 5.86761 58.5689 5.66733C58.0574 5.5338 57.5458 5.56719 57.0023 5.56719H53.3258V15.7482H55.4039V11.9428ZM55.4039 7.53663H57.1622C57.5458 7.53663 57.8975 7.73691 57.8975 8.20423V9.20564C57.8975 9.70635 57.5778 9.94001 57.1622 9.94001H55.4039V7.53663Z" fill="black"/>
<path d="M66.2097 15.8489C67.2327 15.8489 67.8401 15.5485 68.3517 15.1479V9.74028H65.0588V11.6763H66.2736C66.2736 12.3439 66.2736 12.9114 66.2736 13.6124C66.0818 13.6458 65.858 13.6792 65.6342 13.6792H64.803C63.6201 13.6792 63.3324 12.8113 63.3324 11.8766V9.33972C63.3324 8.37169 63.748 7.6707 64.8669 7.6707H68.1918V5.50098H64.7391C62.8209 5.50098 61.4462 6.70267 61.2543 8.77225C61.2543 8.93915 61.2224 9.10605 61.2224 9.27296V12.2104C61.2224 14.3468 62.629 15.8489 64.5472 15.8489H66.2097Z" fill="black"/>
<path d="M71.229 15.7484L71.6765 13.6454H74.1382L74.5858 15.7484H76.7917L74.1063 5.56738H71.6765L69.023 15.7484H71.229ZM72.8914 8.07091L73.7226 11.9096H72.0602L72.8914 8.07091Z" fill="black"/>
<path d="M84.8801 9.50626V15.7484H86.8942V5.56738H84.2727L82.3225 13.1447L80.4043 5.56738H77.7828V15.7484H79.7649V9.50626L81.2675 15.7484H83.3775L84.8801 9.50626Z" fill="black"/>
<path d="M90.6986 15.7484V5.56738H88.6206V15.7484H90.6986Z" fill="black"/>
<path d="M99.6182 15.7484V5.56738H97.6041V11.6426L94.4711 5.56738H92.425V15.7484H94.4071V9.67316L97.5722 15.7484H99.6182Z" fill="black"/>
<path d="M120.367 15.7484V5.56738H118.353V11.6426L115.22 5.56738H113.173V15.7484H115.156V9.67316L118.321 15.7484H120.367Z" fill="black"/>
<path d="M127.784 9.50626H124.043V7.53682H128.167V5.56738H121.965V15.7484H128.167V13.7789H124.043V11.4423H127.784V9.50626Z" fill="black"/>
<path d="M136 7.53682V5.56738H129.222V7.53682H131.588V15.7484H133.666V7.53682H136Z" fill="black"/>
<path d="M105.82 15.8489C106.843 15.8489 107.451 15.5485 107.962 15.1479V9.74028H104.669V11.6763H105.884C105.884 12.3439 105.884 12.9114 105.884 13.6124C105.693 13.6458 105.469 13.6792 105.245 13.6792H104.414C103.231 13.6792 102.943 12.8113 102.943 11.8766V9.33972C102.943 8.37169 103.359 7.6707 104.478 7.6707H107.803V5.50098H104.35C102.432 5.50098 101.057 6.70267 100.865 8.77225C100.865 8.93915 100.833 9.10605 100.833 9.27296V12.2104C100.833 14.3468 102.24 15.8489 104.158 15.8489H105.82Z" fill="black"/>
<path fill-rule="evenodd" clip-rule="evenodd" d="M109.625 13.8457H111.639V15.9153H109.625V13.8457Z" fill="black"/>
</g>
<defs>
<clipPath id="clip0">
<rect width="136" height="32" fill="white"/>
</clipPath>
</defs>
</svg>
