<svg width="140" height="140" viewBox="0 0 140 140" fill="none" xmlns="http://www.w3.org/2000/svg">
<g clip-path="url(#clip0)">
<path d="M139.816 65.579C137.605 29.1053 107.211 0 70 0C32.7895 0 2.39473 29.1053 0.184204 65.579C0.184204 67.0526 0.368415 68.5263 0.552625 70C2.02631 82.1579 6.63157 93.3948 13.6316 102.789C26.3421 120.105 46.7895 131.342 70 131.342C37.5789 131.342 11.0526 106.105 8.8421 74.4211C8.65789 72.9474 8.65789 71.4737 8.65789 70C8.65789 68.5263 8.65789 67.0526 8.8421 65.579C11.0526 33.8947 37.5789 8.6579 70 8.6579C93.2105 8.6579 113.658 19.8947 126.368 37.2105C133.368 46.6053 137.974 57.8421 139.447 70C139.632 71.4737 139.816 72.9474 139.816 74.2369C139.816 72.7632 140 71.2895 140 69.8158C140 68.5263 140 67.0526 139.816 65.579Z" fill="#89D329"/>
<path d="M0.184211 74.4214C2.39474 110.895 32.7895 140 70 140C107.211 140 137.605 110.895 139.816 74.4214C139.816 72.9477 139.632 71.474 139.447 70.0003C137.974 57.8424 133.368 46.6056 126.368 37.2108C113.658 19.895 93.2105 8.6582 70 8.6582C102.421 8.6582 128.947 33.895 131.158 65.5793C131.342 67.0529 131.342 68.5266 131.342 70.0003C131.342 71.474 131.342 72.9477 131.158 74.4214C128.947 106.29 102.421 131.342 70 131.342C46.7895 131.342 26.3421 120.106 13.6316 102.79C6.63158 93.3951 2.02632 82.1582 0.552632 70.0003C0.368421 68.5266 0.184211 67.0529 0.184211 65.7635C0.184211 67.2372 0 68.7108 0 70.1845C0 71.474 1.31758e-08 72.9477 0.184211 74.4214Z" fill="#00BCFF"/>
<path d="M61.3421 13.4473V32.7894H74.7895C78.1053 32.7894 80.6843 30.2104 80.6843 26.8947C80.6843 25.2368 79.9474 23.763 78.8421 22.6577C79.579 21.7367 80.1315 20.4472 80.3157 19.1577C80.3157 16.0262 77.7368 13.4473 74.6052 13.4473H61.3421ZM65.763 17.4999H73.8683C74.7893 17.4999 75.5264 18.2367 75.5264 19.1577C75.5264 20.0788 74.7893 20.8156 73.8683 20.8156H65.763V17.4999ZM65.763 24.8682H74.0526C75.1578 24.8682 75.8947 25.6051 75.8947 26.7104C75.8947 27.8156 75.1578 28.5525 74.0526 28.5525H65.763V24.8682Z" fill="#10384F"/>
<path d="M67.7896 36.4736L58.2105 55.8158H63.1843L64.6579 52.5001H75.5265L77 55.8158H81.9736L72.2105 36.4736H67.7896ZM70 41.4475L73.3157 48.4475H66.6843L70 41.4475Z" fill="#10384F"/>
<path d="M76.6316 60.0527H82.1579L72.3947 72.5791V79.3948H67.7895V72.5791L58.0263 60.0527H63.5526L70.1842 68.8948L76.6316 60.0527Z" fill="#10384F"/>
<path d="M108.316 60.0518V79.3939H112.921V72.0256H116.421L121.947 79.3939H127.474L121.763 71.8413C124.158 71.1045 126 68.894 126 66.1308C126 62.815 123.421 60.0518 120.105 60.0518H108.316ZM113.105 64.1044H119.737C120.658 64.1044 121.579 65.0255 121.579 65.9465C121.579 66.8676 120.842 67.7887 119.737 67.7887H113.105V64.1044Z" fill="#10384F"/>
<path d="M14.1842 60.0518V79.3939H27.6316C30.9474 79.3939 33.5264 76.8149 33.5264 73.4991C33.5264 71.8412 32.7895 70.3675 31.6842 69.2622C32.421 68.3412 32.9735 67.0517 33.1578 65.7622C33.1578 62.6306 30.5789 60.0518 27.4473 60.0518H14.1842ZM18.6051 64.1044H26.7104C27.6314 64.1044 28.3685 64.8412 28.3685 65.7622C28.3685 66.6833 27.6314 67.4201 26.7104 67.4201H18.6051V64.1044ZM18.6051 71.4727H26.8947C27.9999 71.4727 28.7368 72.2096 28.7368 73.3148C28.7368 74.4201 27.9999 75.157 26.8947 75.157H18.6051V71.4727Z" fill="#10384F"/>
<path d="M45.8686 60.0518L36.2896 79.3939H41.2634L42.7369 76.0782H53.6055L55.0791 79.3939H60.0526L50.2895 60.0518H45.8686ZM48.0791 65.0256L51.3948 72.0256H44.7634L48.0791 65.0256Z" fill="#10384F"/>
<path d="M102.237 60.0527V64.2104H89.3421V67.4642H101.868V71.6219H89.3421V75.2372H102.237V79.3949H84.7369V60.0527H102.237Z" fill="#10384F"/>
<path d="M61.1579 107.579V126.921H65.7631V119.553H69.2631L74.7896 126.921H80.3158L74.6053 119.369C77 118.632 78.8422 116.421 78.8422 113.658C78.8422 110.342 76.2632 107.579 72.9474 107.579H61.1579ZM65.9474 111.632H72.5791C73.5002 111.632 74.4213 112.553 74.4213 113.474C74.4213 114.395 73.6844 115.316 72.5791 115.316H65.9474V111.632Z" fill="#10384F"/>
<path d="M78.8421 83.5879V87.7456H65.9474V90.9994H78.4737V95.157H65.9474V98.7724H78.8421V102.93H61.3421V83.5879H78.8421Z" fill="#10384F"/>
</g>
<defs>
<clipPath id="clip0">
<rect width="140" height="140" fill="white"/>
</clipPath>
</defs>
</svg>
