<svg width="125" height="44" viewBox="0 0 125 44" fill="none" xmlns="http://www.w3.org/2000/svg">
<path d="M13.7884 43.9821C10.064 43.836 7.01676 42.8294 4.63412 40.9599C4.1794 40.6028 3.09585 39.5319 2.73234 39.0803C1.76614 37.8804 1.10925 36.7125 0.671104 35.4168C-0.677098 31.4284 0.0167673 26.1946 2.65581 20.4507C4.91537 15.5331 8.40197 10.6559 14.4849 3.90091C15.3809 2.90694 18.0493 0 18.0665 0C18.0729 0 17.9275 0.2488 17.7444 0.551792C16.1628 3.16835 14.8095 6.25039 14.0722 8.91861C12.8879 13.2 13.0308 16.8741 14.4906 19.7231C15.4976 21.6859 17.224 23.3859 19.1653 24.3257C22.5639 25.9704 27.5397 26.1064 33.6162 24.7238C34.0346 24.6281 54.7654 19.1928 79.685 12.6451C104.605 6.09671 124.997 0.743269 125 0.747677C125.007 0.753346 67.1047 25.2246 37.0467 37.92C32.2865 39.93 31.0135 40.4377 28.7757 41.2137C23.055 43.1979 17.9306 44.1446 13.7884 43.9821Z" fill="black"/>
</svg>
