<svg width="1155" height="51" viewBox="0 0 1155 51" fill="none" xmlns="http://www.w3.org/2000/svg">
<path d="M7.668 35.924H3.744C3.528 35.924 3.372 35.852 3.276 35.708C3.18 35.564 3.18 35.396 3.276 35.204L16.308 4.1C16.404 3.908 16.56 3.74 16.776 3.596C16.992 3.452 17.208 3.38 17.424 3.38H21.348C21.564 3.38 21.72 3.452 21.816 3.596C21.912 3.74 21.912 3.908 21.816 4.1L8.748 35.204C8.676 35.396 8.532 35.564 8.316 35.708C8.1 35.852 7.884 35.924 7.668 35.924ZM32.7696 35.924H28.8456C28.6296 35.924 28.4736 35.852 28.3776 35.708C28.2816 35.564 28.2816 35.396 28.3776 35.204L41.4096 4.1C41.5056 3.908 41.6616 3.74 41.8776 3.596C42.0936 3.452 42.3096 3.38 42.5256 3.38H46.4496C46.6656 3.38 46.8216 3.452 46.9176 3.596C47.0136 3.74 47.0136 3.908 46.9176 4.1L33.8496 35.204C33.7776 35.396 33.6336 35.564 33.4176 35.708C33.2016 35.852 32.9856 35.924 32.7696 35.924ZM57.8711 35.924H53.9471C53.7311 35.924 53.5751 35.852 53.4791 35.708C53.3831 35.564 53.3831 35.396 53.4791 35.204L66.5111 4.1C66.6071 3.908 66.7631 3.74 66.9791 3.596C67.1951 3.452 67.4111 3.38 67.6271 3.38H71.5511C71.7671 3.38 71.9231 3.452 72.0191 3.596C72.1151 3.74 72.1151 3.908 72.0191 4.1L58.9511 35.204C58.8791 35.396 58.7351 35.564 58.5191 35.708C58.3031 35.852 58.0871 35.924 57.8711 35.924ZM82.9727 35.924H79.0487C78.8327 35.924 78.6767 35.852 78.5807 35.708C78.4847 35.564 78.4847 35.396 78.5807 35.204L91.6127 4.1C91.7087 3.908 91.8647 3.74 92.0807 3.596C92.2967 3.452 92.5127 3.38 92.7287 3.38H96.6527C96.8687 3.38 97.0247 3.452 97.1207 3.596C97.2167 3.74 97.2167 3.908 97.1207 4.1L84.0527 35.204C83.9807 35.396 83.8367 35.564 83.6207 35.708C83.4047 35.852 83.1887 35.924 82.9727 35.924ZM108.074 35.924H104.15C103.934 35.924 103.778 35.852 103.682 35.708C103.586 35.564 103.586 35.396 103.682 35.204L116.714 4.1C116.81 3.908 116.966 3.74 117.182 3.596C117.398 3.452 117.614 3.38 117.83 3.38H121.754C121.97 3.38 122.126 3.452 122.222 3.596C122.318 3.74 122.318 3.908 122.222 4.1L109.154 35.204C109.082 35.396 108.938 35.564 108.722 35.708C108.506 35.852 108.29 35.924 108.074 35.924ZM133.176 35.924H129.252C129.036 35.924 128.88 35.852 128.784 35.708C128.688 35.564 128.688 35.396 128.784 35.204L141.816 4.1C141.912 3.908 142.068 3.74 142.284 3.596C142.5 3.452 142.716 3.38 142.932 3.38H146.856C147.072 3.38 147.228 3.452 147.324 3.596C147.42 3.74 147.42 3.908 147.324 4.1L134.256 35.204C134.184 35.396 134.04 35.564 133.824 35.708C133.608 35.852 133.392 35.924 133.176 35.924ZM158.277 35.924H154.353C154.137 35.924 153.981 35.852 153.885 35.708C153.789 35.564 153.789 35.396 153.885 35.204L166.917 4.1C167.013 3.908 167.169 3.74 167.385 3.596C167.601 3.452 167.817 3.38 168.033 3.38H171.957C172.173 3.38 172.329 3.452 172.425 3.596C172.521 3.74 172.521 3.908 172.425 4.1L159.357 35.204C159.285 35.396 159.141 35.564 158.925 35.708C158.709 35.852 158.493 35.924 158.277 35.924ZM183.379 35.924H179.455C179.239 35.924 179.083 35.852 178.987 35.708C178.891 35.564 178.891 35.396 178.987 35.204L192.019 4.1C192.115 3.908 192.271 3.74 192.487 3.596C192.703 3.452 192.919 3.38 193.135 3.38H197.059C197.275 3.38 197.431 3.452 197.527 3.596C197.623 3.74 197.623 3.908 197.527 4.1L184.459 35.204C184.387 35.396 184.243 35.564 184.027 35.708C183.811 35.852 183.595 35.924 183.379 35.924ZM208.481 35.924H204.557C204.341 35.924 204.185 35.852 204.089 35.708C203.993 35.564 203.993 35.396 204.089 35.204L217.121 4.1C217.217 3.908 217.373 3.74 217.589 3.596C217.805 3.452 218.021 3.38 218.237 3.38H222.161C222.377 3.38 222.533 3.452 222.629 3.596C222.725 3.74 222.725 3.908 222.629 4.1L209.561 35.204C209.489 35.396 209.345 35.564 209.129 35.708C208.913 35.852 208.697 35.924 208.481 35.924ZM233.582 35.924H229.658C229.442 35.924 229.286 35.852 229.19 35.708C229.094 35.564 229.094 35.396 229.19 35.204L242.222 4.1C242.318 3.908 242.474 3.74 242.69 3.596C242.906 3.452 243.122 3.38 243.338 3.38H247.262C247.478 3.38 247.634 3.452 247.73 3.596C247.826 3.74 247.826 3.908 247.73 4.1L234.662 35.204C234.59 35.396 234.446 35.564 234.23 35.708C234.014 35.852 233.798 35.924 233.582 35.924ZM258.684 35.924H254.76C254.544 35.924 254.388 35.852 254.292 35.708C254.196 35.564 254.196 35.396 254.292 35.204L267.324 4.1C267.42 3.908 267.576 3.74 267.792 3.596C268.008 3.452 268.224 3.38 268.44 3.38H272.364C272.58 3.38 272.736 3.452 272.832 3.596C272.928 3.74 272.928 3.908 272.832 4.1L259.764 35.204C259.692 35.396 259.548 35.564 259.332 35.708C259.116 35.852 258.9 35.924 258.684 35.924ZM283.785 35.924H279.861C279.645 35.924 279.489 35.852 279.393 35.708C279.297 35.564 279.297 35.396 279.393 35.204L292.425 4.1C292.521 3.908 292.677 3.74 292.893 3.596C293.109 3.452 293.325 3.38 293.541 3.38H297.465C297.681 3.38 297.837 3.452 297.933 3.596C298.029 3.74 298.029 3.908 297.933 4.1L284.865 35.204C284.793 35.396 284.649 35.564 284.433 35.708C284.217 35.852 284.001 35.924 283.785 35.924ZM308.887 35.924H304.963C304.747 35.924 304.591 35.852 304.495 35.708C304.399 35.564 304.399 35.396 304.495 35.204L317.527 4.1C317.623 3.908 317.779 3.74 317.995 3.596C318.211 3.452 318.427 3.38 318.643 3.38H322.567C322.783 3.38 322.939 3.452 323.035 3.596C323.131 3.74 323.131 3.908 323.035 4.1L309.967 35.204C309.895 35.396 309.751 35.564 309.535 35.708C309.319 35.852 309.103 35.924 308.887 35.924ZM333.988 35.924H330.064C329.848 35.924 329.692 35.852 329.596 35.708C329.5 35.564 329.5 35.396 329.596 35.204L342.628 4.1C342.724 3.908 342.88 3.74 343.096 3.596C343.312 3.452 343.528 3.38 343.744 3.38H347.668C347.884 3.38 348.04 3.452 348.136 3.596C348.232 3.74 348.232 3.908 348.136 4.1L335.068 35.204C334.996 35.396 334.852 35.564 334.636 35.708C334.42 35.852 334.204 35.924 333.988 35.924ZM359.09 35.924H355.166C354.95 35.924 354.794 35.852 354.698 35.708C354.602 35.564 354.602 35.396 354.698 35.204L367.73 4.1C367.826 3.908 367.982 3.74 368.198 3.596C368.414 3.452 368.63 3.38 368.846 3.38H372.77C372.986 3.38 373.142 3.452 373.238 3.596C373.334 3.74 373.334 3.908 373.238 4.1L360.17 35.204C360.098 35.396 359.954 35.564 359.738 35.708C359.522 35.852 359.306 35.924 359.09 35.924ZM384.191 35.924H380.267C380.051 35.924 379.895 35.852 379.799 35.708C379.703 35.564 379.703 35.396 379.799 35.204L392.831 4.1C392.927 3.908 393.083 3.74 393.299 3.596C393.515 3.452 393.731 3.38 393.947 3.38H397.871C398.087 3.38 398.243 3.452 398.339 3.596C398.435 3.74 398.435 3.908 398.339 4.1L385.271 35.204C385.199 35.396 385.055 35.564 384.839 35.708C384.623 35.852 384.407 35.924 384.191 35.924ZM409.293 35.924H405.369C405.153 35.924 404.997 35.852 404.901 35.708C404.805 35.564 404.805 35.396 404.901 35.204L417.933 4.1C418.029 3.908 418.185 3.74 418.401 3.596C418.617 3.452 418.833 3.38 419.049 3.38H422.973C423.189 3.38 423.345 3.452 423.441 3.596C423.537 3.74 423.537 3.908 423.441 4.1L410.373 35.204C410.301 35.396 410.157 35.564 409.941 35.708C409.725 35.852 409.509 35.924 409.293 35.924ZM434.395 35.924H430.471C430.255 35.924 430.099 35.852 430.003 35.708C429.907 35.564 429.907 35.396 430.003 35.204L443.035 4.1C443.131 3.908 443.287 3.74 443.503 3.596C443.719 3.452 443.935 3.38 444.151 3.38H448.075C448.291 3.38 448.447 3.452 448.543 3.596C448.639 3.74 448.639 3.908 448.543 4.1L435.475 35.204C435.403 35.396 435.259 35.564 435.043 35.708C434.827 35.852 434.611 35.924 434.395 35.924ZM459.496 35.924H455.572C455.356 35.924 455.2 35.852 455.104 35.708C455.008 35.564 455.008 35.396 455.104 35.204L468.136 4.1C468.232 3.908 468.388 3.74 468.604 3.596C468.82 3.452 469.036 3.38 469.252 3.38H473.176C473.392 3.38 473.548 3.452 473.644 3.596C473.74 3.74 473.74 3.908 473.644 4.1L460.576 35.204C460.504 35.396 460.36 35.564 460.144 35.708C459.928 35.852 459.712 35.924 459.496 35.924ZM484.598 35.924H480.674C480.458 35.924 480.302 35.852 480.206 35.708C480.11 35.564 480.11 35.396 480.206 35.204L493.238 4.1C493.334 3.908 493.49 3.74 493.706 3.596C493.922 3.452 494.138 3.38 494.354 3.38H498.278C498.494 3.38 498.65 3.452 498.746 3.596C498.842 3.74 498.842 3.908 498.746 4.1L485.678 35.204C485.606 35.396 485.462 35.564 485.246 35.708C485.03 35.852 484.814 35.924 484.598 35.924ZM509.699 35.924H505.775C505.559 35.924 505.403 35.852 505.307 35.708C505.211 35.564 505.211 35.396 505.307 35.204L518.339 4.1C518.435 3.908 518.591 3.74 518.807 3.596C519.023 3.452 519.239 3.38 519.455 3.38H523.379C523.595 3.38 523.751 3.452 523.847 3.596C523.943 3.74 523.943 3.908 523.847 4.1L510.779 35.204C510.707 35.396 510.563 35.564 510.347 35.708C510.131 35.852 509.915 35.924 509.699 35.924ZM534.801 35.924H530.877C530.661 35.924 530.505 35.852 530.409 35.708C530.313 35.564 530.313 35.396 530.409 35.204L543.441 4.1C543.537 3.908 543.693 3.74 543.909 3.596C544.125 3.452 544.341 3.38 544.557 3.38H548.481C548.697 3.38 548.853 3.452 548.949 3.596C549.045 3.74 549.045 3.908 548.949 4.1L535.881 35.204C535.809 35.396 535.665 35.564 535.449 35.708C535.233 35.852 535.017 35.924 534.801 35.924ZM559.902 35.924H555.978C555.762 35.924 555.606 35.852 555.51 35.708C555.414 35.564 555.414 35.396 555.51 35.204L568.542 4.1C568.638 3.908 568.794 3.74 569.01 3.596C569.226 3.452 569.442 3.38 569.658 3.38H573.582C573.798 3.38 573.954 3.452 574.05 3.596C574.146 3.74 574.146 3.908 574.05 4.1L560.982 35.204C560.91 35.396 560.766 35.564 560.55 35.708C560.334 35.852 560.118 35.924 559.902 35.924ZM585.004 35.924H581.08C580.864 35.924 580.708 35.852 580.612 35.708C580.516 35.564 580.516 35.396 580.612 35.204L593.644 4.1C593.74 3.908 593.896 3.74 594.112 3.596C594.328 3.452 594.544 3.38 594.76 3.38H598.684C598.9 3.38 599.056 3.452 599.152 3.596C599.248 3.74 599.248 3.908 599.152 4.1L586.084 35.204C586.012 35.396 585.868 35.564 585.652 35.708C585.436 35.852 585.22 35.924 585.004 35.924ZM610.106 35.924H606.182C605.966 35.924 605.81 35.852 605.714 35.708C605.618 35.564 605.618 35.396 605.714 35.204L618.746 4.1C618.842 3.908 618.998 3.74 619.214 3.596C619.43 3.452 619.646 3.38 619.862 3.38H623.786C624.002 3.38 624.158 3.452 624.254 3.596C624.35 3.74 624.35 3.908 624.254 4.1L611.186 35.204C611.114 35.396 610.97 35.564 610.754 35.708C610.538 35.852 610.322 35.924 610.106 35.924ZM635.207 35.924H631.283C631.067 35.924 630.911 35.852 630.815 35.708C630.719 35.564 630.719 35.396 630.815 35.204L643.847 4.1C643.943 3.908 644.099 3.74 644.315 3.596C644.531 3.452 644.747 3.38 644.963 3.38H648.887C649.103 3.38 649.259 3.452 649.355 3.596C649.451 3.74 649.451 3.908 649.355 4.1L636.287 35.204C636.215 35.396 636.071 35.564 635.855 35.708C635.639 35.852 635.423 35.924 635.207 35.924ZM660.309 35.924H656.385C656.169 35.924 656.013 35.852 655.917 35.708C655.821 35.564 655.821 35.396 655.917 35.204L668.949 4.1C669.045 3.908 669.201 3.74 669.417 3.596C669.633 3.452 669.849 3.38 670.065 3.38H673.989C674.205 3.38 674.361 3.452 674.457 3.596C674.553 3.74 674.553 3.908 674.457 4.1L661.389 35.204C661.317 35.396 661.173 35.564 660.957 35.708C660.741 35.852 660.525 35.924 660.309 35.924ZM685.41 35.924H681.486C681.27 35.924 681.114 35.852 681.018 35.708C680.922 35.564 680.922 35.396 681.018 35.204L694.05 4.1C694.146 3.908 694.302 3.74 694.518 3.596C694.734 3.452 694.95 3.38 695.166 3.38H699.09C699.306 3.38 699.462 3.452 699.558 3.596C699.654 3.74 699.654 3.908 699.558 4.1L686.49 35.204C686.418 35.396 686.274 35.564 686.058 35.708C685.842 35.852 685.626 35.924 685.41 35.924ZM710.512 35.924H706.588C706.372 35.924 706.216 35.852 706.12 35.708C706.024 35.564 706.024 35.396 706.12 35.204L719.152 4.1C719.248 3.908 719.404 3.74 719.62 3.596C719.836 3.452 720.052 3.38 720.268 3.38H724.192C724.408 3.38 724.564 3.452 724.66 3.596C724.756 3.74 724.756 3.908 724.66 4.1L711.592 35.204C711.52 35.396 711.376 35.564 711.16 35.708C710.944 35.852 710.728 35.924 710.512 35.924ZM735.613 35.924H731.689C731.473 35.924 731.317 35.852 731.221 35.708C731.125 35.564 731.125 35.396 731.221 35.204L744.253 4.1C744.349 3.908 744.505 3.74 744.721 3.596C744.937 3.452 745.153 3.38 745.369 3.38H749.293C749.509 3.38 749.665 3.452 749.761 3.596C749.857 3.74 749.857 3.908 749.761 4.1L736.693 35.204C736.621 35.396 736.477 35.564 736.261 35.708C736.045 35.852 735.829 35.924 735.613 35.924ZM760.715 35.924H756.791C756.575 35.924 756.419 35.852 756.323 35.708C756.227 35.564 756.227 35.396 756.323 35.204L769.355 4.1C769.451 3.908 769.607 3.74 769.823 3.596C770.039 3.452 770.255 3.38 770.471 3.38H774.395C774.611 3.38 774.767 3.452 774.863 3.596C774.959 3.74 774.959 3.908 774.863 4.1L761.795 35.204C761.723 35.396 761.579 35.564 761.363 35.708C761.147 35.852 760.931 35.924 760.715 35.924ZM785.816 35.924H781.892C781.676 35.924 781.52 35.852 781.424 35.708C781.328 35.564 781.328 35.396 781.424 35.204L794.456 4.1C794.552 3.908 794.708 3.74 794.924 3.596C795.14 3.452 795.356 3.38 795.572 3.38H799.496C799.712 3.38 799.868 3.452 799.964 3.596C800.06 3.74 800.06 3.908 799.964 4.1L786.896 35.204C786.824 35.396 786.68 35.564 786.464 35.708C786.248 35.852 786.032 35.924 785.816 35.924ZM810.918 35.924H806.994C806.778 35.924 806.622 35.852 806.526 35.708C806.43 35.564 806.43 35.396 806.526 35.204L819.558 4.1C819.654 3.908 819.81 3.74 820.026 3.596C820.242 3.452 820.458 3.38 820.674 3.38H824.598C824.814 3.38 824.97 3.452 825.066 3.596C825.162 3.74 825.162 3.908 825.066 4.1L811.998 35.204C811.926 35.396 811.782 35.564 811.566 35.708C811.35 35.852 811.134 35.924 810.918 35.924ZM836.02 35.924H832.096C831.88 35.924 831.724 35.852 831.628 35.708C831.532 35.564 831.532 35.396 831.628 35.204L844.66 4.1C844.756 3.908 844.912 3.74 845.128 3.596C845.344 3.452 845.56 3.38 845.776 3.38H849.7C849.916 3.38 850.072 3.452 850.168 3.596C850.264 3.74 850.264 3.908 850.168 4.1L837.1 35.204C837.028 35.396 836.884 35.564 836.668 35.708C836.452 35.852 836.236 35.924 836.02 35.924ZM861.121 35.924H857.197C856.981 35.924 856.825 35.852 856.729 35.708C856.633 35.564 856.633 35.396 856.729 35.204L869.761 4.1C869.857 3.908 870.013 3.74 870.229 3.596C870.445 3.452 870.661 3.38 870.877 3.38H874.801C875.017 3.38 875.173 3.452 875.269 3.596C875.365 3.74 875.365 3.908 875.269 4.1L862.201 35.204C862.129 35.396 861.985 35.564 861.769 35.708C861.553 35.852 861.337 35.924 861.121 35.924ZM886.223 35.924H882.299C882.083 35.924 881.927 35.852 881.831 35.708C881.735 35.564 881.735 35.396 881.831 35.204L894.863 4.1C894.959 3.908 895.115 3.74 895.331 3.596C895.547 3.452 895.763 3.38 895.979 3.38H899.903C900.119 3.38 900.275 3.452 900.371 3.596C900.467 3.74 900.467 3.908 900.371 4.1L887.303 35.204C887.231 35.396 887.087 35.564 886.871 35.708C886.655 35.852 886.439 35.924 886.223 35.924ZM911.324 35.924H907.4C907.184 35.924 907.028 35.852 906.932 35.708C906.836 35.564 906.836 35.396 906.932 35.204L919.964 4.1C920.06 3.908 920.216 3.74 920.432 3.596C920.648 3.452 920.864 3.38 921.08 3.38H925.004C925.22 3.38 925.376 3.452 925.472 3.596C925.568 3.74 925.568 3.908 925.472 4.1L912.404 35.204C912.332 35.396 912.188 35.564 911.972 35.708C911.756 35.852 911.54 35.924 911.324 35.924ZM936.426 35.924H932.502C932.286 35.924 932.13 35.852 932.034 35.708C931.938 35.564 931.938 35.396 932.034 35.204L945.066 4.1C945.162 3.908 945.318 3.74 945.534 3.596C945.75 3.452 945.966 3.38 946.182 3.38H950.106C950.322 3.38 950.478 3.452 950.574 3.596C950.67 3.74 950.67 3.908 950.574 4.1L937.506 35.204C937.434 35.396 937.29 35.564 937.074 35.708C936.858 35.852 936.642 35.924 936.426 35.924ZM961.527 35.924H957.603C957.387 35.924 957.231 35.852 957.135 35.708C957.039 35.564 957.039 35.396 957.135 35.204L970.167 4.1C970.263 3.908 970.419 3.74 970.635 3.596C970.851 3.452 971.067 3.38 971.283 3.38H975.207C975.423 3.38 975.579 3.452 975.675 3.596C975.771 3.74 975.771 3.908 975.675 4.1L962.607 35.204C962.535 35.396 962.391 35.564 962.175 35.708C961.959 35.852 961.743 35.924 961.527 35.924ZM986.629 35.924H982.705C982.489 35.924 982.333 35.852 982.237 35.708C982.141 35.564 982.141 35.396 982.237 35.204L995.269 4.1C995.365 3.908 995.521 3.74 995.737 3.596C995.953 3.452 996.169 3.38 996.385 3.38H1000.31C1000.52 3.38 1000.68 3.452 1000.78 3.596C1000.87 3.74 1000.87 3.908 1000.78 4.1L987.709 35.204C987.637 35.396 987.493 35.564 987.277 35.708C987.061 35.852 986.845 35.924 986.629 35.924ZM1011.73 35.924H1007.81C1007.59 35.924 1007.43 35.852 1007.34 35.708C1007.24 35.564 1007.24 35.396 1007.34 35.204L1020.37 4.1C1020.47 3.908 1020.62 3.74 1020.84 3.596C1021.05 3.452 1021.27 3.38 1021.49 3.38H1025.41C1025.63 3.38 1025.78 3.452 1025.88 3.596C1025.97 3.74 1025.97 3.908 1025.88 4.1L1012.81 35.204C1012.74 35.396 1012.59 35.564 1012.38 35.708C1012.16 35.852 1011.95 35.924 1011.73 35.924ZM1036.83 35.924H1032.91C1032.69 35.924 1032.54 35.852 1032.44 35.708C1032.34 35.564 1032.34 35.396 1032.44 35.204L1045.47 4.1C1045.57 3.908 1045.72 3.74 1045.94 3.596C1046.16 3.452 1046.37 3.38 1046.59 3.38H1050.51C1050.73 3.38 1050.88 3.452 1050.98 3.596C1051.08 3.74 1051.08 3.908 1050.98 4.1L1037.91 35.204C1037.84 35.396 1037.7 35.564 1037.48 35.708C1037.26 35.852 1037.05 35.924 1036.83 35.924ZM1061.93 35.924H1058.01C1057.79 35.924 1057.64 35.852 1057.54 35.708C1057.45 35.564 1057.45 35.396 1057.54 35.204L1070.57 4.1C1070.67 3.908 1070.83 3.74 1071.04 3.596C1071.26 3.452 1071.47 3.38 1071.69 3.38H1075.61C1075.83 3.38 1075.99 3.452 1076.08 3.596C1076.18 3.74 1076.18 3.908 1076.08 4.1L1063.01 35.204C1062.94 35.396 1062.8 35.564 1062.58 35.708C1062.37 35.852 1062.15 35.924 1061.93 35.924ZM1087.04 35.924H1083.11C1082.9 35.924 1082.74 35.852 1082.64 35.708C1082.55 35.564 1082.55 35.396 1082.64 35.204L1095.68 4.1C1095.77 3.908 1095.93 3.74 1096.14 3.596C1096.36 3.452 1096.58 3.38 1096.79 3.38H1100.72C1100.93 3.38 1101.09 3.452 1101.18 3.596C1101.28 3.74 1101.28 3.908 1101.18 4.1L1088.12 35.204C1088.04 35.396 1087.9 35.564 1087.68 35.708C1087.47 35.852 1087.25 35.924 1087.04 35.924ZM1112.14 35.924H1108.21C1108 35.924 1107.84 35.852 1107.74 35.708C1107.65 35.564 1107.65 35.396 1107.74 35.204L1120.78 4.1C1120.87 3.908 1121.03 3.74 1121.24 3.596C1121.46 3.452 1121.68 3.38 1121.89 3.38H1125.82C1126.03 3.38 1126.19 3.452 1126.28 3.596C1126.38 3.74 1126.38 3.908 1126.28 4.1L1113.22 35.204C1113.14 35.396 1113 35.564 1112.78 35.708C1112.57 35.852 1112.35 35.924 1112.14 35.924ZM1137.24 35.924H1133.31C1133.1 35.924 1132.94 35.852 1132.85 35.708C1132.75 35.564 1132.75 35.396 1132.85 35.204L1145.88 4.1C1145.97 3.908 1146.13 3.74 1146.35 3.596C1146.56 3.452 1146.78 3.38 1146.99 3.38H1150.92C1151.13 3.38 1151.29 3.452 1151.39 3.596C1151.48 3.74 1151.48 3.908 1151.39 4.1L1138.32 35.204C1138.25 35.396 1138.1 35.564 1137.89 35.708C1137.67 35.852 1137.45 35.924 1137.24 35.924Z" fill="#89D329"/>
<path d="M7.668 45.924H3.744C3.528 45.924 3.372 45.852 3.276 45.708C3.18 45.564 3.18 45.396 3.276 45.204L16.308 14.1C16.404 13.908 16.56 13.74 16.776 13.596C16.992 13.452 17.208 13.38 17.424 13.38H21.348C21.564 13.38 21.72 13.452 21.816 13.596C21.912 13.74 21.912 13.908 21.816 14.1L8.748 45.204C8.676 45.396 8.532 45.564 8.316 45.708C8.1 45.852 7.884 45.924 7.668 45.924ZM32.7696 45.924H28.8456C28.6296 45.924 28.4736 45.852 28.3776 45.708C28.2816 45.564 28.2816 45.396 28.3776 45.204L41.4096 14.1C41.5056 13.908 41.6616 13.74 41.8776 13.596C42.0936 13.452 42.3096 13.38 42.5256 13.38H46.4496C46.6656 13.38 46.8216 13.452 46.9176 13.596C47.0136 13.74 47.0136 13.908 46.9176 14.1L33.8496 45.204C33.7776 45.396 33.6336 45.564 33.4176 45.708C33.2016 45.852 32.9856 45.924 32.7696 45.924ZM57.8711 45.924H53.9471C53.7311 45.924 53.5751 45.852 53.4791 45.708C53.3831 45.564 53.3831 45.396 53.4791 45.204L66.5111 14.1C66.6071 13.908 66.7631 13.74 66.9791 13.596C67.1951 13.452 67.4111 13.38 67.6271 13.38H71.5511C71.7671 13.38 71.9231 13.452 72.0191 13.596C72.1151 13.74 72.1151 13.908 72.0191 14.1L58.9511 45.204C58.8791 45.396 58.7351 45.564 58.5191 45.708C58.3031 45.852 58.0871 45.924 57.8711 45.924ZM82.9727 45.924H79.0487C78.8327 45.924 78.6767 45.852 78.5807 45.708C78.4847 45.564 78.4847 45.396 78.5807 45.204L91.6127 14.1C91.7087 13.908 91.8647 13.74 92.0807 13.596C92.2967 13.452 92.5127 13.38 92.7287 13.38H96.6527C96.8687 13.38 97.0247 13.452 97.1207 13.596C97.2167 13.74 97.2167 13.908 97.1207 14.1L84.0527 45.204C83.9807 45.396 83.8367 45.564 83.6207 45.708C83.4047 45.852 83.1887 45.924 82.9727 45.924ZM108.074 45.924H104.15C103.934 45.924 103.778 45.852 103.682 45.708C103.586 45.564 103.586 45.396 103.682 45.204L116.714 14.1C116.81 13.908 116.966 13.74 117.182 13.596C117.398 13.452 117.614 13.38 117.83 13.38H121.754C121.97 13.38 122.126 13.452 122.222 13.596C122.318 13.74 122.318 13.908 122.222 14.1L109.154 45.204C109.082 45.396 108.938 45.564 108.722 45.708C108.506 45.852 108.29 45.924 108.074 45.924ZM133.176 45.924H129.252C129.036 45.924 128.88 45.852 128.784 45.708C128.688 45.564 128.688 45.396 128.784 45.204L141.816 14.1C141.912 13.908 142.068 13.74 142.284 13.596C142.5 13.452 142.716 13.38 142.932 13.38H146.856C147.072 13.38 147.228 13.452 147.324 13.596C147.42 13.74 147.42 13.908 147.324 14.1L134.256 45.204C134.184 45.396 134.04 45.564 133.824 45.708C133.608 45.852 133.392 45.924 133.176 45.924ZM158.277 45.924H154.353C154.137 45.924 153.981 45.852 153.885 45.708C153.789 45.564 153.789 45.396 153.885 45.204L166.917 14.1C167.013 13.908 167.169 13.74 167.385 13.596C167.601 13.452 167.817 13.38 168.033 13.38H171.957C172.173 13.38 172.329 13.452 172.425 13.596C172.521 13.74 172.521 13.908 172.425 14.1L159.357 45.204C159.285 45.396 159.141 45.564 158.925 45.708C158.709 45.852 158.493 45.924 158.277 45.924ZM183.379 45.924H179.455C179.239 45.924 179.083 45.852 178.987 45.708C178.891 45.564 178.891 45.396 178.987 45.204L192.019 14.1C192.115 13.908 192.271 13.74 192.487 13.596C192.703 13.452 192.919 13.38 193.135 13.38H197.059C197.275 13.38 197.431 13.452 197.527 13.596C197.623 13.74 197.623 13.908 197.527 14.1L184.459 45.204C184.387 45.396 184.243 45.564 184.027 45.708C183.811 45.852 183.595 45.924 183.379 45.924ZM208.481 45.924H204.557C204.341 45.924 204.185 45.852 204.089 45.708C203.993 45.564 203.993 45.396 204.089 45.204L217.121 14.1C217.217 13.908 217.373 13.74 217.589 13.596C217.805 13.452 218.021 13.38 218.237 13.38H222.161C222.377 13.38 222.533 13.452 222.629 13.596C222.725 13.74 222.725 13.908 222.629 14.1L209.561 45.204C209.489 45.396 209.345 45.564 209.129 45.708C208.913 45.852 208.697 45.924 208.481 45.924ZM233.582 45.924H229.658C229.442 45.924 229.286 45.852 229.19 45.708C229.094 45.564 229.094 45.396 229.19 45.204L242.222 14.1C242.318 13.908 242.474 13.74 242.69 13.596C242.906 13.452 243.122 13.38 243.338 13.38H247.262C247.478 13.38 247.634 13.452 247.73 13.596C247.826 13.74 247.826 13.908 247.73 14.1L234.662 45.204C234.59 45.396 234.446 45.564 234.23 45.708C234.014 45.852 233.798 45.924 233.582 45.924ZM258.684 45.924H254.76C254.544 45.924 254.388 45.852 254.292 45.708C254.196 45.564 254.196 45.396 254.292 45.204L267.324 14.1C267.42 13.908 267.576 13.74 267.792 13.596C268.008 13.452 268.224 13.38 268.44 13.38H272.364C272.58 13.38 272.736 13.452 272.832 13.596C272.928 13.74 272.928 13.908 272.832 14.1L259.764 45.204C259.692 45.396 259.548 45.564 259.332 45.708C259.116 45.852 258.9 45.924 258.684 45.924ZM283.785 45.924H279.861C279.645 45.924 279.489 45.852 279.393 45.708C279.297 45.564 279.297 45.396 279.393 45.204L292.425 14.1C292.521 13.908 292.677 13.74 292.893 13.596C293.109 13.452 293.325 13.38 293.541 13.38H297.465C297.681 13.38 297.837 13.452 297.933 13.596C298.029 13.74 298.029 13.908 297.933 14.1L284.865 45.204C284.793 45.396 284.649 45.564 284.433 45.708C284.217 45.852 284.001 45.924 283.785 45.924ZM308.887 45.924H304.963C304.747 45.924 304.591 45.852 304.495 45.708C304.399 45.564 304.399 45.396 304.495 45.204L317.527 14.1C317.623 13.908 317.779 13.74 317.995 13.596C318.211 13.452 318.427 13.38 318.643 13.38H322.567C322.783 13.38 322.939 13.452 323.035 13.596C323.131 13.74 323.131 13.908 323.035 14.1L309.967 45.204C309.895 45.396 309.751 45.564 309.535 45.708C309.319 45.852 309.103 45.924 308.887 45.924ZM333.988 45.924H330.064C329.848 45.924 329.692 45.852 329.596 45.708C329.5 45.564 329.5 45.396 329.596 45.204L342.628 14.1C342.724 13.908 342.88 13.74 343.096 13.596C343.312 13.452 343.528 13.38 343.744 13.38H347.668C347.884 13.38 348.04 13.452 348.136 13.596C348.232 13.74 348.232 13.908 348.136 14.1L335.068 45.204C334.996 45.396 334.852 45.564 334.636 45.708C334.42 45.852 334.204 45.924 333.988 45.924ZM359.09 45.924H355.166C354.95 45.924 354.794 45.852 354.698 45.708C354.602 45.564 354.602 45.396 354.698 45.204L367.73 14.1C367.826 13.908 367.982 13.74 368.198 13.596C368.414 13.452 368.63 13.38 368.846 13.38H372.77C372.986 13.38 373.142 13.452 373.238 13.596C373.334 13.74 373.334 13.908 373.238 14.1L360.17 45.204C360.098 45.396 359.954 45.564 359.738 45.708C359.522 45.852 359.306 45.924 359.09 45.924ZM384.191 45.924H380.267C380.051 45.924 379.895 45.852 379.799 45.708C379.703 45.564 379.703 45.396 379.799 45.204L392.831 14.1C392.927 13.908 393.083 13.74 393.299 13.596C393.515 13.452 393.731 13.38 393.947 13.38H397.871C398.087 13.38 398.243 13.452 398.339 13.596C398.435 13.74 398.435 13.908 398.339 14.1L385.271 45.204C385.199 45.396 385.055 45.564 384.839 45.708C384.623 45.852 384.407 45.924 384.191 45.924ZM409.293 45.924H405.369C405.153 45.924 404.997 45.852 404.901 45.708C404.805 45.564 404.805 45.396 404.901 45.204L417.933 14.1C418.029 13.908 418.185 13.74 418.401 13.596C418.617 13.452 418.833 13.38 419.049 13.38H422.973C423.189 13.38 423.345 13.452 423.441 13.596C423.537 13.74 423.537 13.908 423.441 14.1L410.373 45.204C410.301 45.396 410.157 45.564 409.941 45.708C409.725 45.852 409.509 45.924 409.293 45.924ZM434.395 45.924H430.471C430.255 45.924 430.099 45.852 430.003 45.708C429.907 45.564 429.907 45.396 430.003 45.204L443.035 14.1C443.131 13.908 443.287 13.74 443.503 13.596C443.719 13.452 443.935 13.38 444.151 13.38H448.075C448.291 13.38 448.447 13.452 448.543 13.596C448.639 13.74 448.639 13.908 448.543 14.1L435.475 45.204C435.403 45.396 435.259 45.564 435.043 45.708C434.827 45.852 434.611 45.924 434.395 45.924ZM459.496 45.924H455.572C455.356 45.924 455.2 45.852 455.104 45.708C455.008 45.564 455.008 45.396 455.104 45.204L468.136 14.1C468.232 13.908 468.388 13.74 468.604 13.596C468.82 13.452 469.036 13.38 469.252 13.38H473.176C473.392 13.38 473.548 13.452 473.644 13.596C473.74 13.74 473.74 13.908 473.644 14.1L460.576 45.204C460.504 45.396 460.36 45.564 460.144 45.708C459.928 45.852 459.712 45.924 459.496 45.924ZM484.598 45.924H480.674C480.458 45.924 480.302 45.852 480.206 45.708C480.11 45.564 480.11 45.396 480.206 45.204L493.238 14.1C493.334 13.908 493.49 13.74 493.706 13.596C493.922 13.452 494.138 13.38 494.354 13.38H498.278C498.494 13.38 498.65 13.452 498.746 13.596C498.842 13.74 498.842 13.908 498.746 14.1L485.678 45.204C485.606 45.396 485.462 45.564 485.246 45.708C485.03 45.852 484.814 45.924 484.598 45.924ZM509.699 45.924H505.775C505.559 45.924 505.403 45.852 505.307 45.708C505.211 45.564 505.211 45.396 505.307 45.204L518.339 14.1C518.435 13.908 518.591 13.74 518.807 13.596C519.023 13.452 519.239 13.38 519.455 13.38H523.379C523.595 13.38 523.751 13.452 523.847 13.596C523.943 13.74 523.943 13.908 523.847 14.1L510.779 45.204C510.707 45.396 510.563 45.564 510.347 45.708C510.131 45.852 509.915 45.924 509.699 45.924ZM534.801 45.924H530.877C530.661 45.924 530.505 45.852 530.409 45.708C530.313 45.564 530.313 45.396 530.409 45.204L543.441 14.1C543.537 13.908 543.693 13.74 543.909 13.596C544.125 13.452 544.341 13.38 544.557 13.38H548.481C548.697 13.38 548.853 13.452 548.949 13.596C549.045 13.74 549.045 13.908 548.949 14.1L535.881 45.204C535.809 45.396 535.665 45.564 535.449 45.708C535.233 45.852 535.017 45.924 534.801 45.924ZM559.902 45.924H555.978C555.762 45.924 555.606 45.852 555.51 45.708C555.414 45.564 555.414 45.396 555.51 45.204L568.542 14.1C568.638 13.908 568.794 13.74 569.01 13.596C569.226 13.452 569.442 13.38 569.658 13.38H573.582C573.798 13.38 573.954 13.452 574.05 13.596C574.146 13.74 574.146 13.908 574.05 14.1L560.982 45.204C560.91 45.396 560.766 45.564 560.55 45.708C560.334 45.852 560.118 45.924 559.902 45.924ZM585.004 45.924H581.08C580.864 45.924 580.708 45.852 580.612 45.708C580.516 45.564 580.516 45.396 580.612 45.204L593.644 14.1C593.74 13.908 593.896 13.74 594.112 13.596C594.328 13.452 594.544 13.38 594.76 13.38H598.684C598.9 13.38 599.056 13.452 599.152 13.596C599.248 13.74 599.248 13.908 599.152 14.1L586.084 45.204C586.012 45.396 585.868 45.564 585.652 45.708C585.436 45.852 585.22 45.924 585.004 45.924ZM610.106 45.924H606.182C605.966 45.924 605.81 45.852 605.714 45.708C605.618 45.564 605.618 45.396 605.714 45.204L618.746 14.1C618.842 13.908 618.998 13.74 619.214 13.596C619.43 13.452 619.646 13.38 619.862 13.38H623.786C624.002 13.38 624.158 13.452 624.254 13.596C624.35 13.74 624.35 13.908 624.254 14.1L611.186 45.204C611.114 45.396 610.97 45.564 610.754 45.708C610.538 45.852 610.322 45.924 610.106 45.924ZM635.207 45.924H631.283C631.067 45.924 630.911 45.852 630.815 45.708C630.719 45.564 630.719 45.396 630.815 45.204L643.847 14.1C643.943 13.908 644.099 13.74 644.315 13.596C644.531 13.452 644.747 13.38 644.963 13.38H648.887C649.103 13.38 649.259 13.452 649.355 13.596C649.451 13.74 649.451 13.908 649.355 14.1L636.287 45.204C636.215 45.396 636.071 45.564 635.855 45.708C635.639 45.852 635.423 45.924 635.207 45.924ZM660.309 45.924H656.385C656.169 45.924 656.013 45.852 655.917 45.708C655.821 45.564 655.821 45.396 655.917 45.204L668.949 14.1C669.045 13.908 669.201 13.74 669.417 13.596C669.633 13.452 669.849 13.38 670.065 13.38H673.989C674.205 13.38 674.361 13.452 674.457 13.596C674.553 13.74 674.553 13.908 674.457 14.1L661.389 45.204C661.317 45.396 661.173 45.564 660.957 45.708C660.741 45.852 660.525 45.924 660.309 45.924ZM685.41 45.924H681.486C681.27 45.924 681.114 45.852 681.018 45.708C680.922 45.564 680.922 45.396 681.018 45.204L694.05 14.1C694.146 13.908 694.302 13.74 694.518 13.596C694.734 13.452 694.95 13.38 695.166 13.38H699.09C699.306 13.38 699.462 13.452 699.558 13.596C699.654 13.74 699.654 13.908 699.558 14.1L686.49 45.204C686.418 45.396 686.274 45.564 686.058 45.708C685.842 45.852 685.626 45.924 685.41 45.924ZM710.512 45.924H706.588C706.372 45.924 706.216 45.852 706.12 45.708C706.024 45.564 706.024 45.396 706.12 45.204L719.152 14.1C719.248 13.908 719.404 13.74 719.62 13.596C719.836 13.452 720.052 13.38 720.268 13.38H724.192C724.408 13.38 724.564 13.452 724.66 13.596C724.756 13.74 724.756 13.908 724.66 14.1L711.592 45.204C711.52 45.396 711.376 45.564 711.16 45.708C710.944 45.852 710.728 45.924 710.512 45.924ZM735.613 45.924H731.689C731.473 45.924 731.317 45.852 731.221 45.708C731.125 45.564 731.125 45.396 731.221 45.204L744.253 14.1C744.349 13.908 744.505 13.74 744.721 13.596C744.937 13.452 745.153 13.38 745.369 13.38H749.293C749.509 13.38 749.665 13.452 749.761 13.596C749.857 13.74 749.857 13.908 749.761 14.1L736.693 45.204C736.621 45.396 736.477 45.564 736.261 45.708C736.045 45.852 735.829 45.924 735.613 45.924ZM760.715 45.924H756.791C756.575 45.924 756.419 45.852 756.323 45.708C756.227 45.564 756.227 45.396 756.323 45.204L769.355 14.1C769.451 13.908 769.607 13.74 769.823 13.596C770.039 13.452 770.255 13.38 770.471 13.38H774.395C774.611 13.38 774.767 13.452 774.863 13.596C774.959 13.74 774.959 13.908 774.863 14.1L761.795 45.204C761.723 45.396 761.579 45.564 761.363 45.708C761.147 45.852 760.931 45.924 760.715 45.924ZM785.816 45.924H781.892C781.676 45.924 781.52 45.852 781.424 45.708C781.328 45.564 781.328 45.396 781.424 45.204L794.456 14.1C794.552 13.908 794.708 13.74 794.924 13.596C795.14 13.452 795.356 13.38 795.572 13.38H799.496C799.712 13.38 799.868 13.452 799.964 13.596C800.06 13.74 800.06 13.908 799.964 14.1L786.896 45.204C786.824 45.396 786.68 45.564 786.464 45.708C786.248 45.852 786.032 45.924 785.816 45.924ZM810.918 45.924H806.994C806.778 45.924 806.622 45.852 806.526 45.708C806.43 45.564 806.43 45.396 806.526 45.204L819.558 14.1C819.654 13.908 819.81 13.74 820.026 13.596C820.242 13.452 820.458 13.38 820.674 13.38H824.598C824.814 13.38 824.97 13.452 825.066 13.596C825.162 13.74 825.162 13.908 825.066 14.1L811.998 45.204C811.926 45.396 811.782 45.564 811.566 45.708C811.35 45.852 811.134 45.924 810.918 45.924ZM836.02 45.924H832.096C831.88 45.924 831.724 45.852 831.628 45.708C831.532 45.564 831.532 45.396 831.628 45.204L844.66 14.1C844.756 13.908 844.912 13.74 845.128 13.596C845.344 13.452 845.56 13.38 845.776 13.38H849.7C849.916 13.38 850.072 13.452 850.168 13.596C850.264 13.74 850.264 13.908 850.168 14.1L837.1 45.204C837.028 45.396 836.884 45.564 836.668 45.708C836.452 45.852 836.236 45.924 836.02 45.924ZM861.121 45.924H857.197C856.981 45.924 856.825 45.852 856.729 45.708C856.633 45.564 856.633 45.396 856.729 45.204L869.761 14.1C869.857 13.908 870.013 13.74 870.229 13.596C870.445 13.452 870.661 13.38 870.877 13.38H874.801C875.017 13.38 875.173 13.452 875.269 13.596C875.365 13.74 875.365 13.908 875.269 14.1L862.201 45.204C862.129 45.396 861.985 45.564 861.769 45.708C861.553 45.852 861.337 45.924 861.121 45.924ZM886.223 45.924H882.299C882.083 45.924 881.927 45.852 881.831 45.708C881.735 45.564 881.735 45.396 881.831 45.204L894.863 14.1C894.959 13.908 895.115 13.74 895.331 13.596C895.547 13.452 895.763 13.38 895.979 13.38H899.903C900.119 13.38 900.275 13.452 900.371 13.596C900.467 13.74 900.467 13.908 900.371 14.1L887.303 45.204C887.231 45.396 887.087 45.564 886.871 45.708C886.655 45.852 886.439 45.924 886.223 45.924ZM911.324 45.924H907.4C907.184 45.924 907.028 45.852 906.932 45.708C906.836 45.564 906.836 45.396 906.932 45.204L919.964 14.1C920.06 13.908 920.216 13.74 920.432 13.596C920.648 13.452 920.864 13.38 921.08 13.38H925.004C925.22 13.38 925.376 13.452 925.472 13.596C925.568 13.74 925.568 13.908 925.472 14.1L912.404 45.204C912.332 45.396 912.188 45.564 911.972 45.708C911.756 45.852 911.54 45.924 911.324 45.924ZM936.426 45.924H932.502C932.286 45.924 932.13 45.852 932.034 45.708C931.938 45.564 931.938 45.396 932.034 45.204L945.066 14.1C945.162 13.908 945.318 13.74 945.534 13.596C945.75 13.452 945.966 13.38 946.182 13.38H950.106C950.322 13.38 950.478 13.452 950.574 13.596C950.67 13.74 950.67 13.908 950.574 14.1L937.506 45.204C937.434 45.396 937.29 45.564 937.074 45.708C936.858 45.852 936.642 45.924 936.426 45.924ZM961.527 45.924H957.603C957.387 45.924 957.231 45.852 957.135 45.708C957.039 45.564 957.039 45.396 957.135 45.204L970.167 14.1C970.263 13.908 970.419 13.74 970.635 13.596C970.851 13.452 971.067 13.38 971.283 13.38H975.207C975.423 13.38 975.579 13.452 975.675 13.596C975.771 13.74 975.771 13.908 975.675 14.1L962.607 45.204C962.535 45.396 962.391 45.564 962.175 45.708C961.959 45.852 961.743 45.924 961.527 45.924ZM986.629 45.924H982.705C982.489 45.924 982.333 45.852 982.237 45.708C982.141 45.564 982.141 45.396 982.237 45.204L995.269 14.1C995.365 13.908 995.521 13.74 995.737 13.596C995.953 13.452 996.169 13.38 996.385 13.38H1000.31C1000.52 13.38 1000.68 13.452 1000.78 13.596C1000.87 13.74 1000.87 13.908 1000.78 14.1L987.709 45.204C987.637 45.396 987.493 45.564 987.277 45.708C987.061 45.852 986.845 45.924 986.629 45.924ZM1011.73 45.924H1007.81C1007.59 45.924 1007.43 45.852 1007.34 45.708C1007.24 45.564 1007.24 45.396 1007.34 45.204L1020.37 14.1C1020.47 13.908 1020.62 13.74 1020.84 13.596C1021.05 13.452 1021.27 13.38 1021.49 13.38H1025.41C1025.63 13.38 1025.78 13.452 1025.88 13.596C1025.97 13.74 1025.97 13.908 1025.88 14.1L1012.81 45.204C1012.74 45.396 1012.59 45.564 1012.38 45.708C1012.16 45.852 1011.95 45.924 1011.73 45.924ZM1036.83 45.924H1032.91C1032.69 45.924 1032.54 45.852 1032.44 45.708C1032.34 45.564 1032.34 45.396 1032.44 45.204L1045.47 14.1C1045.57 13.908 1045.72 13.74 1045.94 13.596C1046.16 13.452 1046.37 13.38 1046.59 13.38H1050.51C1050.73 13.38 1050.88 13.452 1050.98 13.596C1051.08 13.74 1051.08 13.908 1050.98 14.1L1037.91 45.204C1037.84 45.396 1037.7 45.564 1037.48 45.708C1037.26 45.852 1037.05 45.924 1036.83 45.924ZM1061.93 45.924H1058.01C1057.79 45.924 1057.64 45.852 1057.54 45.708C1057.45 45.564 1057.45 45.396 1057.54 45.204L1070.57 14.1C1070.67 13.908 1070.83 13.74 1071.04 13.596C1071.26 13.452 1071.47 13.38 1071.69 13.38H1075.61C1075.83 13.38 1075.99 13.452 1076.08 13.596C1076.18 13.74 1076.18 13.908 1076.08 14.1L1063.01 45.204C1062.94 45.396 1062.8 45.564 1062.58 45.708C1062.37 45.852 1062.15 45.924 1061.93 45.924ZM1087.04 45.924H1083.11C1082.9 45.924 1082.74 45.852 1082.64 45.708C1082.55 45.564 1082.55 45.396 1082.64 45.204L1095.68 14.1C1095.77 13.908 1095.93 13.74 1096.14 13.596C1096.36 13.452 1096.58 13.38 1096.79 13.38H1100.72C1100.93 13.38 1101.09 13.452 1101.18 13.596C1101.28 13.74 1101.28 13.908 1101.18 14.1L1088.12 45.204C1088.04 45.396 1087.9 45.564 1087.68 45.708C1087.47 45.852 1087.25 45.924 1087.04 45.924ZM1112.14 45.924H1108.21C1108 45.924 1107.84 45.852 1107.74 45.708C1107.65 45.564 1107.65 45.396 1107.74 45.204L1120.78 14.1C1120.87 13.908 1121.03 13.74 1121.24 13.596C1121.46 13.452 1121.68 13.38 1121.89 13.38H1125.82C1126.03 13.38 1126.19 13.452 1126.28 13.596C1126.38 13.74 1126.38 13.908 1126.28 14.1L1113.22 45.204C1113.14 45.396 1113 45.564 1112.78 45.708C1112.57 45.852 1112.35 45.924 1112.14 45.924ZM1137.24 45.924H1133.31C1133.1 45.924 1132.94 45.852 1132.85 45.708C1132.75 45.564 1132.75 45.396 1132.85 45.204L1145.88 14.1C1145.97 13.908 1146.13 13.74 1146.35 13.596C1146.56 13.452 1146.78 13.38 1146.99 13.38H1150.92C1151.13 13.38 1151.29 13.452 1151.39 13.596C1151.48 13.74 1151.48 13.908 1151.39 14.1L1138.32 45.204C1138.25 45.396 1138.1 45.564 1137.89 45.708C1137.67 45.852 1137.45 45.924 1137.24 45.924Z" fill="#DDB8BE"/>
</svg>
